# 3ds Max Wavefront OBJ Exporter v0.97b - (c)2007 guruware
# File Created: 19.01.2020 22:13:26

#
# object Grass1
#

v  -5.0000 10.0000 0.0001
v  -5.0000 0.0000 0.0000
v  5.0000 0.0000 0.0000
v  5.0000 10.0000 0.0001
# 4 vertices

vn 0.0000 -0.0000 1.0000
# 1 vertex normals

vt -0.0000 1.0000 0.0000
vt -0.0000 0.5005 0.0000
vt 0.4995 0.5005 0.0000
vt 0.4995 1.0000 0.0000
# 4 texture coords

o Grass1
g Grass1
s 1
f 1/1/1 2/2/1 3/3/1 4/4/1 
# 1 polygons

#
# object Grass2
#

v  -5.0000 10.0000 0.0000
v  -5.0000 0.0000 0.0000
v  5.0000 0.0000 0.0000
v  5.0000 10.0000 0.0000
# 4 vertices

vn 0.0000 0.0000 1.0000
# 1 vertex normals

vt 0.5000 1.0000 0.0000
vt 0.5000 0.5000 0.0000
vt 1.0000 0.5000 0.0000
vt 1.0000 1.0000 0.0000
# 4 texture coords

o Grass2
g Grass2
s 1
f 5/5/2 6/6/2 7/7/2 8/8/2 
# 1 polygons

#
# object Grass3
#

v  -5.0000 10.0000 0.0000
v  -5.0000 0.0000 0.0000
v  5.0000 0.0000 0.0000
v  5.0000 10.0000 0.0000
# 4 vertices

vn 0.0000 0.0000 1.0000
# 1 vertex normals

vt -0.0013 0.4997 0.0000
vt -0.0013 -0.0003 0.0000
vt 0.4987 -0.0003 0.0000
vt 0.4987 0.4997 0.0000
# 4 texture coords

o Grass3
g Grass3
s 1
f 9/9/3 10/10/3 11/11/3 12/12/3 
# 1 polygons

#
# object Grass4
#

v  -5.0000 10.0000 0.0000
v  -5.0000 0.0000 0.0000
v  5.0000 0.0000 0.0000
v  5.0000 10.0000 0.0000
# 4 vertices

vn 0.0000 0.0000 1.0000
# 1 vertex normals

vt 0.5000 0.5001 0.0000
vt 0.5000 0.0001 0.0000
vt 1.0000 0.0001 0.0000
vt 1.0000 0.5001 0.0000
# 4 texture coords

o Grass4
g Grass4
s 1
f 13/13/4 14/14/4 15/15/4 16/16/4 
# 1 polygons

