# 3ds Max Wavefront OBJ Exporter v0.97b - (c)2007 guruware
# File Created: 12.02.2020 15:15:31

#
# object TilePreText
#

v  -7.8013 -1.2903 6.7102
v  -7.8669 -1.2903 4.3645
v  -4.0692 -1.2903 4.3645
v  -4.0692 -1.2903 7.2742
v  -1.1596 -1.2903 4.3645
v  -1.1596 -1.2903 6.6451
v  1.7500 -1.2903 4.3645
v  1.7500 -1.2903 6.6451
v  4.6596 -1.2903 4.3645
v  4.6596 -1.4676 7.2742
v  7.5692 -1.4676 4.3645
v  7.5692 -1.4676 7.2742
v  -7.8669 -1.2903 1.4548
v  -4.0692 -1.2903 1.4548
v  -1.1596 -1.2903 1.4548
v  1.7500 -1.2903 1.4548
v  4.6596 -1.2903 1.4548
v  7.8669 -1.2903 1.4548
v  -6.9788 -1.2903 -1.4548
v  -4.0692 -1.2903 -1.4548
v  -1.1596 -1.2903 -1.4548
v  1.7500 -1.2903 -1.4548
v  4.6596 -1.2903 -1.4548
v  7.8669 -1.2903 -1.4548
v  -6.9788 -1.2903 -4.3645
v  -4.0692 -1.2903 -4.3645
v  -1.1596 -1.2903 -4.3645
v  1.7500 -1.2903 -4.3645
v  4.6596 -1.2903 -4.3645
v  7.5692 -1.2903 -4.3645
v  -6.9788 -1.2903 -7.2742
v  -4.0692 -1.2903 -7.2742
v  -1.1596 -1.2903 -7.2742
v  1.7500 -1.2903 -7.2742
v  4.6596 -1.2903 -7.2742
v  7.3110 -1.2903 -6.7612
v  -7.1123 1.1679 6.5496
v  -4.0692 1.1679 6.9161
v  -4.0692 1.4676 4.3645
v  -7.3859 1.1679 4.3645
v  -1.1596 1.1679 6.6451
v  -1.1596 1.4676 4.3645
v  1.7500 1.1679 6.6451
v  1.7500 1.4676 4.3645
v  4.6596 0.5710 7.2742
v  4.6596 0.8196 4.3645
v  7.5692 0.5710 7.2742
v  7.5692 0.5710 4.3645
v  -4.0692 1.4676 1.4548
v  -7.3859 1.1679 1.4548
v  -3.7310 0.7486 4.0068
v  -1.0534 0.7486 4.0068
v  -1.3563 0.7486 1.6321
v  -3.7310 0.7486 1.3291
v  1.6242 0.7486 4.0068
v  1.9272 0.7486 1.6321
v  4.3018 0.6807 4.0068
v  4.3018 0.7486 1.3291
v  7.8669 1.1679 1.4548
v  4.6596 1.4676 1.4548
v  -4.0692 1.4676 -1.4548
v  -6.9788 1.1679 -1.4548
v  -1.3563 0.7486 -1.6515
v  -3.7310 0.7486 -1.3486
v  -1.1596 1.4676 1.4548
v  1.7500 1.4676 1.4548
v  1.7500 1.4676 -1.4548
v  -1.1596 1.4676 -1.4548
v  4.3018 0.7486 -1.3486
v  1.9272 0.7486 -1.6515
v  7.8669 1.1679 -1.4548
v  4.6596 1.4676 -1.4548
v  -4.0692 1.4676 -4.3645
v  -6.9788 1.1679 -4.3645
v  -1.0534 0.7486 -4.0262
v  -3.7310 0.7486 -4.0262
v  1.6242 0.7486 -4.0262
v  4.3018 0.7486 -4.0262
v  7.5692 1.1679 -4.3645
v  4.6596 1.4676 -4.3645
v  -4.0692 1.1679 -7.2742
v  -6.9788 1.1679 -7.2742
v  -1.1596 1.4676 -4.3645
v  -1.1596 1.1679 -7.2742
v  1.7500 1.4676 -4.3645
v  1.7500 1.1679 -7.2742
v  4.6596 1.1679 -7.2742
v  7.3110 1.1679 -6.7612
v  -4.0692 -0.6758 7.2742
v  -7.8013 -0.6758 6.7102
v  -1.1596 -0.6758 6.8901
v  1.7500 -0.6758 6.8901
v  4.6596 -0.9579 7.2742
v  7.5692 -0.9579 7.2742
v  -4.0692 0.5533 7.2742
v  -7.8013 0.5533 6.7102
v  -1.1596 0.5533 6.6451
v  1.7500 0.5533 6.6451
v  4.6596 0.0614 7.2742
v  7.5692 0.0614 7.2742
v  7.5692 -0.9579 4.3645
v  7.8669 -0.6758 1.4548
v  7.8669 -0.6758 -1.4548
v  7.5692 -0.6758 -4.3645
v  7.3110 -0.6758 -6.7612
v  7.5692 0.0614 4.3645
v  7.8669 0.5533 1.4548
v  7.8669 0.5533 -1.4548
v  7.5692 0.5533 -4.3645
v  7.3110 0.5533 -6.7612
v  4.6596 -0.6758 -7.2742
v  1.7500 -0.6758 -7.2742
v  -1.1596 -0.6758 -7.2742
v  -4.0692 -0.6758 -7.2742
v  -6.9788 -0.6758 -7.2742
v  4.6596 0.5533 -7.2742
v  1.7500 0.5533 -7.2742
v  -1.1596 0.5533 -7.2742
v  -4.0692 0.5533 -7.2742
v  -6.9788 0.5533 -7.2742
v  -6.9788 -0.6758 -4.3645
v  -6.9788 -0.6758 -1.4548
v  -7.8669 -0.6758 1.4548
v  -7.8669 -0.6758 4.3645
v  -6.9788 0.5533 -4.3645
v  -6.9788 0.5533 -1.4548
v  -7.8669 0.5533 1.4548
v  -7.8669 0.5533 4.3645
# 128 vertices

vn -0.6061 -0.5873 0.5364
vn -0.7102 -0.7040 0.0099
vn 0.0000 -1.0000 -0.0000
vn 0.0234 -0.6687 0.7432
vn 0.0555 -0.8451 0.5318
vn -0.0834 -0.8404 0.5354
vn -0.0304 -0.9991 -0.0304
vn -0.0934 -0.7099 0.6981
vn 0.6651 -0.7467 0.0097
vn 0.5774 -0.5774 0.5774
vn -0.7294 -0.6753 -0.1088
vn 0.7245 -0.6890 0.0174
vn -0.6632 -0.7419 -0.0990
vn 0.7173 -0.6958 -0.0366
vn -0.7071 -0.7071 -0.0000
vn 0.7038 -0.7065 -0.0739
vn -0.5774 -0.5774 -0.5774
vn 0.0000 -0.7071 -0.7071
vn 0.0694 -0.6862 -0.7240
vn 0.5919 -0.5946 -0.5441
vn -0.2822 0.8262 0.4876
vn -0.0079 0.8226 0.5685
vn 0.1313 0.9842 -0.1187
vn -0.4895 0.8714 0.0311
vn 0.0346 0.6692 0.7422
vn 0.0000 0.8827 -0.4699
vn 0.0045 0.7039 0.7102
vn 0.0976 0.8844 -0.4564
vn -0.0279 0.6307 0.7756
vn 0.0501 0.9975 0.0501
vn 0.5774 0.5774 0.5774
vn 0.7459 0.6572 0.1086
vn 0.4973 0.8676 -0.0000
vn -0.4908 0.8706 -0.0349
vn 0.4346 0.7942 -0.4247
vn 0.0000 0.8502 -0.5265
vn -0.2273 0.9477 0.2243
vn 0.5358 0.8443 -0.0000
vn 0.0099 0.8491 -0.5281
vn 0.2293 0.9460 0.2293
vn -0.1327 0.9822 -0.1327
vn -0.5281 0.8491 0.0099
vn 0.7257 0.6805 0.1018
vn -0.4728 0.8758 0.0969
vn 0.4918 0.8707 -0.0000
vn -0.7269 0.6849 -0.0508
vn -0.2224 0.9493 -0.2224
vn -0.4949 0.7068 0.5055
vn 0.5045 0.7007 0.5045
vn 0.5055 0.7068 -0.4949
vn -0.4959 0.7129 -0.4959
vn -0.5265 0.8502 -0.0000
vn 0.2243 0.9477 -0.2273
vn 0.7480 0.6626 -0.0381
vn -0.4864 0.8737 -0.0000
vn 0.1280 0.9835 0.1280
vn -0.7424 0.6699 -0.0000
vn 0.0000 0.8443 0.5358
vn 0.4337 0.7898 0.4337
vn -0.4247 0.7942 0.4346
vn 0.7390 0.6692 -0.0776
vn -0.1264 0.9841 0.1245
vn 0.0000 0.6699 -0.7424
vn -0.5774 0.5774 -0.5774
vn 0.0000 0.8707 0.4918
vn 0.0721 0.6502 -0.7564
vn 0.5919 0.5946 -0.5441
vn -0.0094 0.0000 1.0000
vn -0.7489 0.0000 0.6627
vn 0.0661 -0.0921 0.9936
vn -0.0699 -0.0831 0.9941
vn -0.0656 0.0000 0.9978
vn 0.7071 0.0000 0.7071
vn 0.0297 0.2534 0.9669
vn -0.7243 0.3483 0.5950
vn 0.1051 0.0971 0.9897
vn -0.0983 0.0923 0.9909
vn -0.1063 0.0000 0.9943
vn 0.9987 0.0000 0.0510
vn 0.9987 0.0000 -0.0510
vn 0.9945 0.0000 -0.1045
vn 0.7360 -0.0000 -0.6769
vn 0.7360 0.0000 -0.6769
vn 0.0954 -0.0000 -0.9954
vn 0.0000 -0.0000 -1.0000
vn -0.7071 -0.0000 -0.7071
vn 0.0954 0.0000 -0.9954
vn 0.0000 0.0000 -1.0000
vn -0.7071 0.0000 -0.7071
vn -1.0000 0.0000 -0.0000
vn -0.9890 -0.0000 -0.1476
vn -0.9999 0.0000 0.0140
vn -0.9890 0.0000 -0.1476
vn -0.9392 0.3148 -0.1369
vn -0.9456 0.3251 0.0132
# 95 vertex normals

vt 0.0705 0.1080 0.0000
vt 0.1236 0.1078 0.0000
vt 0.1216 0.1938 0.0000
vt 0.0557 0.1922 0.0000
vt 0.1200 0.2597 0.0000
vt 0.0684 0.2584 0.0000
vt 0.1185 0.3255 0.0000
vt 0.0668 0.3243 0.0000
vt 0.1169 0.3914 0.0000
vt 0.0509 0.3900 0.0000
vt 0.1153 0.4573 0.0000
vt 0.0494 0.4558 0.0000
vt 0.1895 0.1094 0.0000
vt 0.1875 0.1953 0.0000
vt 0.1859 0.2612 0.0000
vt 0.1843 0.3271 0.0000
vt 0.1828 0.3930 0.0000
vt 0.1811 0.4656 0.0000
vt 0.2549 0.1310 0.0000
vt 0.2533 0.1969 0.0000
vt 0.2518 0.2628 0.0000
vt 0.2502 0.3286 0.0000
vt 0.2487 0.3945 0.0000
vt 0.2470 0.4671 0.0000
vt 0.3208 0.1326 0.0000
vt 0.3192 0.1984 0.0000
vt 0.3177 0.2643 0.0000
vt 0.3161 0.3302 0.0000
vt 0.3146 0.3961 0.0000
vt 0.3130 0.4619 0.0000
vt 0.3866 0.1341 0.0000
vt 0.3851 0.2000 0.0000
vt 0.3835 0.2659 0.0000
vt 0.3820 0.3317 0.0000
vt 0.3804 0.3976 0.0000
vt 0.3674 0.4574 0.0000
vt 0.0527 0.4864 0.0000
vt 0.1591 0.4749 0.0000
vt 0.1579 0.5645 0.0000
vt 0.0418 0.5625 0.0000
vt 0.2605 0.4858 0.0000
vt 0.2591 0.5659 0.0000
vt 0.3620 0.4878 0.0000
vt 0.3602 0.5679 0.0000
vt 0.4655 0.4657 0.0000
vt 0.4639 0.5673 0.0000
vt 0.5669 0.4670 0.0000
vt 0.5656 0.5685 0.0000
vt 0.1563 0.6658 0.0000
vt 0.0402 0.6640 0.0000
vt 0.1723 0.5750 0.0000
vt 0.2656 0.5770 0.0000
vt 0.2533 0.6595 0.0000
vt 0.1703 0.6683 0.0000
vt 0.3589 0.5789 0.0000
vt 0.3677 0.6619 0.0000
vt 0.4522 0.5809 0.0000
vt 0.4502 0.6743 0.0000
vt 0.5728 0.6723 0.0000
vt 0.4606 0.6710 0.0000
vt 0.1549 0.7671 0.0000
vt 0.0529 0.7658 0.0000
vt 0.2508 0.7739 0.0000
vt 0.1683 0.7616 0.0000
vt 0.2608 0.6656 0.0000
vt 0.3621 0.6705 0.0000
vt 0.3572 0.7718 0.0000
vt 0.2559 0.7669 0.0000
vt 0.4482 0.7676 0.0000
vt 0.3652 0.7764 0.0000
vt 0.5715 0.7738 0.0000
vt 0.4592 0.7722 0.0000
vt 0.1537 0.8685 0.0000
vt 0.0516 0.8674 0.0000
vt 0.2596 0.8569 0.0000
vt 0.1663 0.8549 0.0000
vt 0.3529 0.8589 0.0000
vt 0.4462 0.8609 0.0000
vt 0.5596 0.8751 0.0000
vt 0.4577 0.8734 0.0000
vt 0.1517 0.9705 0.0000
vt 0.0501 0.9690 0.0000
vt 0.2550 0.8703 0.0000
vt 0.2533 0.9723 0.0000
vt 0.3563 0.8720 0.0000
vt 0.3548 0.9740 0.0000
vt 0.4564 0.9753 0.0000
vt 0.5491 0.9586 0.0000
vt 0.8001 0.4434 0.0000
vt 0.8008 0.5735 0.0000
vt 0.7797 0.5733 0.0000
vt 0.7789 0.4435 0.0000
vt 0.7993 0.6775 0.0000
vt 0.7760 0.6759 0.0000
vt 0.7943 0.7799 0.0000
vt 0.7711 0.7793 0.0000
vt 0.7925 0.8847 0.0000
vt 0.7746 0.8834 0.0000
vt 0.7862 0.9864 0.0000
vt 0.7684 0.9853 0.0000
vt 0.7381 0.5727 0.0000
vt 0.7364 0.4438 0.0000
vt 0.7316 0.6744 0.0000
vt 0.7269 0.7763 0.0000
vt 0.7390 0.8813 0.0000
vt 0.7329 0.9831 0.0000
vt 0.7139 0.5726 0.0000
vt 0.7133 0.4672 0.0000
vt 0.7102 0.6735 0.0000
vt 0.7054 0.7752 0.0000
vt 0.7211 0.8803 0.0000
vt 0.7151 0.9821 0.0000
vt 0.0955 0.0138 0.0000
vt 0.1969 0.0120 0.0000
vt 0.1973 0.0298 0.0000
vt 0.0958 0.0316 0.0000
vt 0.2990 0.0164 0.0000
vt 0.2994 0.0378 0.0000
vt 0.4004 0.0146 0.0000
vt 0.4008 0.0360 0.0000
vt 0.5023 0.0127 0.0000
vt 0.5027 0.0342 0.0000
vt 0.5864 0.0112 0.0000
vt 0.5867 0.0327 0.0000
vt 0.1979 0.0653 0.0000
vt 0.0965 0.0671 0.0000
vt 0.3001 0.0806 0.0000
vt 0.4015 0.0788 0.0000
vt 0.5035 0.0770 0.0000
vt 0.5875 0.0755 0.0000
vt 0.1982 0.0831 0.0000
vt 0.0968 0.0849 0.0000
vt 0.3005 0.1020 0.0000
vt 0.4019 0.1002 0.0000
vt 0.5039 0.0984 0.0000
vt 0.5879 0.0969 0.0000
vt 0.6050 0.9712 0.0000
vt 0.6050 0.8771 0.0000
vt 0.6264 0.8771 0.0000
vt 0.6264 0.9712 0.0000
vt 0.6049 0.7756 0.0000
vt 0.6264 0.7756 0.0000
vt 0.6049 0.6742 0.0000
vt 0.6264 0.6742 0.0000
vt 0.6050 0.5728 0.0000
vt 0.6264 0.5728 0.0000
vt 0.6050 0.4714 0.0000
vt 0.6264 0.4714 0.0000
vt 0.6692 0.8771 0.0000
vt 0.6692 0.9712 0.0000
vt 0.6692 0.7756 0.0000
vt 0.6692 0.6742 0.0000
vt 0.6692 0.5728 0.0000
vt 0.6692 0.4714 0.0000
vt 0.6906 0.8771 0.0000
vt 0.6906 0.9712 0.0000
vt 0.6906 0.7756 0.0000
vt 0.6906 0.6742 0.0000
vt 0.6906 0.5728 0.0000
vt 0.6906 0.4714 0.0000
vt 0.8206 0.9366 0.0000
vt 0.8190 0.8351 0.0000
vt 0.8405 0.8348 0.0000
vt 0.8420 0.9363 0.0000
vt 0.8174 0.7335 0.0000
vt 0.8388 0.7330 0.0000
vt 0.8148 0.6275 0.0000
vt 0.8361 0.6274 0.0000
vt 0.8166 0.5258 0.0000
vt 0.8382 0.5263 0.0000
vt 0.8187 0.4431 0.0000
vt 0.8403 0.4437 0.0000
vt 0.8834 0.8342 0.0000
vt 0.8849 0.9356 0.0000
vt 0.8820 0.7321 0.0000
vt 0.8779 0.6271 0.0000
vt 0.8817 0.5276 0.0000
vt 0.8837 0.4447 0.0000
vt 0.9048 0.8339 0.0000
vt 0.9063 0.9353 0.0000
vt 0.9035 0.7321 0.0000
vt 0.9046 0.6294 0.0000
vt 0.9087 0.5287 0.0000
vt 0.0146 0.5607 0.0000
vt 0.0208 0.4790 0.0000
vt 0.4951 0.4546 0.0000
vt 0.4984 0.3532 0.0000
vt 0.5265 0.3504 0.0000
vt 0.5235 0.4437 0.0000
vt 0.5016 0.2518 0.0000
vt 0.5295 0.2571 0.0000
vt 0.5226 0.1501 0.0000
vt 0.5346 0.1639 0.0000
vt 0.6203 0.1397 0.0000
vt 0.6316 0.2430 0.0000
vt 0.6034 0.2457 0.0000
vt 0.6070 0.1524 0.0000
vt 0.6254 0.3443 0.0000
vt 0.5977 0.3388 0.0000
vt 0.6192 0.4455 0.0000
vt 0.5920 0.4320 0.0000
vt 0.6734 0.1533 0.0000
vt 0.6734 0.2547 0.0000
vt 0.6457 0.2591 0.0000
vt 0.6457 0.1658 0.0000
vt 0.6734 0.3561 0.0000
vt 0.6457 0.3524 0.0000
vt 0.6734 0.4576 0.0000
vt 0.6457 0.4458 0.0000
vt 0.5479 0.4575 0.0000
vt 0.5479 0.3561 0.0000
vt 0.5755 0.3524 0.0000
vt 0.5755 0.4457 0.0000
vt 0.5479 0.2547 0.0000
vt 0.5755 0.2590 0.0000
vt 0.5479 0.1532 0.0000
vt 0.5755 0.1657 0.0000
vt 0.4735 0.2203 0.0000
vt 0.4697 0.3217 0.0000
vt 0.4436 0.3275 0.0000
vt 0.4480 0.2131 0.0000
vt 0.4277 0.3461 0.0000
vt 0.4229 0.4474 0.0000
vt 0.3967 0.4530 0.0000
vt 0.4020 0.3387 0.0000
vt 0.4494 0.4484 0.0000
vt 0.4497 0.3469 0.0000
vt 0.4757 0.3408 0.0000
vt 0.4754 0.4553 0.0000
vt 0.4347 0.2200 0.0000
vt 0.4336 0.3215 0.0000
vt 0.4077 0.3274 0.0000
vt 0.4089 0.2129 0.0000
# 233 texture coords

o TilePreText
g TilePreText
s off
f 1/1/1 2/2/2 3/3/3 4/4/4 
f 4/4/4 3/3/3 5/5/3 6/6/5 
f 6/6/5 5/5/3 7/7/3 8/8/6 
f 8/8/6 7/7/3 9/9/7 10/10/8 
f 10/10/8 9/9/7 11/11/9 12/12/10 
f 2/2/2 13/13/11 14/14/3 3/3/3 
f 3/3/3 14/14/3 15/15/3 5/5/3 
f 5/5/3 15/15/3 16/16/3 7/7/3 
f 7/7/3 16/16/3 17/17/3 9/9/7 
f 9/9/7 17/17/3 18/18/12 11/11/9 
f 13/13/11 19/19/13 20/20/3 14/14/3 
f 14/14/3 20/20/3 21/21/3 15/15/3 
f 15/15/3 21/21/3 22/22/3 16/16/3 
f 16/16/3 22/22/3 23/23/3 17/17/3 
f 17/17/3 23/23/3 24/24/14 18/18/12 
f 19/19/13 25/25/15 26/26/3 20/20/3 
f 20/20/3 26/26/3 27/27/3 21/21/3 
f 21/21/3 27/27/3 28/28/3 22/22/3 
f 22/22/3 28/28/3 29/29/3 23/23/3 
f 23/23/3 29/29/3 30/30/16 24/24/14 
f 25/25/15 31/31/17 32/32/18 26/26/3 
f 26/26/3 32/32/18 33/33/18 27/27/3 
f 27/27/3 33/33/18 34/34/18 28/28/3 
f 28/28/3 34/34/18 35/35/19 29/29/3 
f 29/29/3 35/35/19 36/36/20 30/30/16 
f 37/37/21 38/38/22 39/39/23 40/40/24 
f 38/38/22 41/41/25 42/42/26 39/39/23 
f 41/41/25 43/43/27 44/44/28 42/42/26 
f 43/43/27 45/45/29 46/46/30 44/44/28 
f 45/45/29 47/47/31 48/48/32 46/46/30 
f 40/40/24 39/39/23 49/49/33 50/50/34 
f 51/51/35 52/52/36 53/53/37 54/54/38 
f 52/52/36 55/55/39 56/56/40 53/53/37 
f 55/55/39 57/57/41 58/58/42 56/56/40 
f 46/46/30 48/48/32 59/59/43 60/60/44 
f 50/50/34 49/49/33 61/61/45 62/62/46 
f 54/54/38 53/53/37 63/63/47 64/64/38 
f 65/65/48 66/66/49 67/67/50 68/68/51 
f 56/56/40 58/58/42 69/69/52 70/70/53 
f 60/60/44 59/59/43 71/71/54 72/72/55 
f 62/62/46 61/61/45 73/73/56 74/74/57 
f 64/64/38 63/63/47 75/75/58 76/76/59 
f 63/63/47 70/70/53 77/77/58 75/75/58 
f 70/70/53 69/69/52 78/78/60 77/77/58 
f 72/72/55 71/71/54 79/79/61 80/80/62 
f 74/74/57 73/73/56 81/81/63 82/82/64 
f 73/73/56 83/83/65 84/84/63 81/81/63 
f 83/83/65 85/85/65 86/86/63 84/84/63 
f 85/85/65 80/80/62 87/87/66 86/86/63 
f 80/80/62 79/79/61 88/88/67 87/87/66 
f 1/89/1 4/90/4 89/91/68 90/92/69 
f 4/90/4 6/93/5 91/94/70 89/91/68 
f 6/93/5 8/95/6 92/96/71 91/94/70 
f 8/95/6 10/97/8 93/98/72 92/96/71 
f 10/97/8 12/99/10 94/100/73 93/98/72 
f 90/92/69 89/91/68 95/101/74 96/102/75 
f 89/91/68 91/94/70 97/103/76 95/101/74 
f 91/94/70 92/96/71 98/104/77 97/103/76 
f 92/96/71 93/98/72 99/105/78 98/104/77 
f 93/98/72 94/100/73 100/106/73 99/105/78 
f 96/102/75 95/101/74 38/107/22 37/108/21 
f 95/101/74 97/103/76 41/109/25 38/107/22 
f 97/103/76 98/104/77 43/110/27 41/109/25 
f 98/104/77 99/105/78 45/111/29 43/110/27 
f 99/105/78 100/106/73 47/112/31 45/111/29 
f 12/113/10 11/114/9 101/115/79 94/116/73 
f 11/114/9 18/117/12 102/118/79 101/115/79 
f 18/117/12 24/119/14 103/120/80 102/118/79 
f 24/119/14 30/121/16 104/122/81 103/120/80 
f 30/121/16 36/123/20 105/124/82 104/122/81 
f 94/116/73 101/115/79 106/125/79 100/126/73 
f 101/115/79 102/118/79 107/127/79 106/125/79 
f 102/118/79 103/120/80 108/128/80 107/127/79 
f 103/120/80 104/122/81 109/129/81 108/128/80 
f 104/122/81 105/124/82 110/130/83 109/129/81 
f 100/126/73 106/125/79 48/131/32 47/132/31 
f 106/125/79 107/127/79 59/133/43 48/131/32 
f 107/127/79 108/128/80 71/134/54 59/133/43 
f 108/128/80 109/129/81 79/135/61 71/134/54 
f 109/129/81 110/130/83 88/136/67 79/135/61 
f 36/137/20 35/138/19 111/139/84 105/140/82 
f 35/138/19 34/141/18 112/142/85 111/139/84 
f 34/141/18 33/143/18 113/144/85 112/142/85 
f 33/143/18 32/145/18 114/146/85 113/144/85 
f 32/145/18 31/147/17 115/148/86 114/146/85 
f 105/140/82 111/139/84 116/149/87 110/150/83 
f 111/139/84 112/142/85 117/151/88 116/149/87 
f 112/142/85 113/144/85 118/152/88 117/151/88 
f 113/144/85 114/146/85 119/153/88 118/152/88 
f 114/146/85 115/148/86 120/154/89 119/153/88 
f 110/150/83 116/149/87 87/155/66 88/156/67 
f 116/149/87 117/151/88 86/157/63 87/155/66 
f 117/151/88 118/152/88 84/158/63 86/157/63 
f 118/152/88 119/153/88 81/159/63 84/158/63 
f 119/153/88 120/154/89 82/160/64 81/159/63 
f 31/161/17 25/162/15 121/163/90 115/164/86 
f 25/162/15 19/165/13 122/166/91 121/163/90 
f 19/165/13 13/167/11 123/168/91 122/166/91 
f 13/167/11 2/169/2 124/170/92 123/168/91 
f 2/169/2 1/171/1 90/172/69 124/170/92 
f 115/164/86 121/163/90 125/173/90 120/174/89 
f 121/163/90 122/166/91 126/175/93 125/173/90 
f 122/166/91 123/168/91 127/176/94 126/175/93 
f 123/168/91 124/170/92 128/177/95 127/176/94 
f 124/170/92 90/172/69 96/178/75 128/177/95 
f 120/174/89 125/173/90 74/179/57 82/180/64 
f 125/173/90 126/175/93 62/181/46 74/179/57 
f 126/175/93 127/176/94 50/182/34 62/181/46 
f 127/176/94 128/177/95 40/183/24 50/182/34 
f 128/184/95 96/185/75 37/37/21 40/40/24 
f 39/186/23 42/187/26 52/188/36 51/189/35 
f 42/187/26 44/190/28 55/191/39 52/188/36 
f 44/190/28 46/192/30 57/193/41 55/191/39 
f 46/194/30 60/195/44 58/196/42 57/197/41 
f 60/195/44 72/198/55 69/199/52 58/196/42 
f 72/198/55 80/200/62 78/201/60 69/199/52 
f 80/202/62 85/203/65 77/204/58 78/205/60 
f 85/203/65 83/206/65 75/207/58 77/204/58 
f 83/206/65 73/208/56 76/209/59 75/207/58 
f 73/210/56 61/211/45 64/212/38 76/213/59 
f 61/211/45 49/214/33 54/215/38 64/212/38 
f 49/214/33 39/216/23 51/217/35 54/215/38 
f 66/218/49 65/219/48 53/220/37 56/221/40 
f 65/222/48 68/223/51 63/224/47 53/225/37 
f 68/226/51 67/227/50 70/228/53 63/229/47 
f 67/230/50 66/231/49 56/232/40 70/233/53 
# 126 polygons

