# 3ds Max Wavefront OBJ Exporter v0.97b - (c)2007 guruware
# File Created: 20.09.2019 17:42:21

mtllib floor1.mtl

#
# object Box2077
#

v  -12.1830 0.7493 16.2469
v  -8.7092 1.5322 19.6583
v  -8.7092 3.4687 11.7529
v  -15.5784 1.0958 11.6476
v  -4.0303 1.8030 20.1534
v  -4.0303 2.8444 11.7529
v  2.1455 1.6183 19.4200
v  2.1455 2.8444 11.7529
v  12.0737 1.4909 19.9196
v  6.5570 2.8444 11.7529
v  14.0589 1.3411 17.6954
v  15.5694 1.5532 13.5891
v  -8.7157 2.8475 2.6864
v  -15.6361 1.5916 2.6707
v  -4.0303 2.8444 2.7461
v  2.1455 3.6541 2.7461
v  6.5570 2.8444 2.7461
v  15.6208 1.3550 3.1317
v  -8.8838 2.2678 -1.8044
v  -15.8477 1.4748 -1.8398
v  -4.0303 4.0053 -1.7573
v  2.1455 3.2493 -1.7573
v  6.5570 2.8444 -1.7573
v  13.9435 1.7516 -1.4496
v  -15.6349 1.6416 -6.3333
v  -8.8838 3.2384 -6.3079
v  -8.0953 2.5528 -9.6781
v  -16.0991 1.5872 -11.5022
v  -4.0303 4.0843 -6.2607
v  -3.4999 2.5924 -10.4376
v  2.1455 2.8444 -6.2607
v  2.1455 2.8444 -15.2676
v  6.5570 2.8444 -6.2607
v  8.1566 3.2161 -15.2856
v  13.8570 1.1675 -6.8613
v  15.7569 1.6167 -14.8285
v  -8.9161 2.2560 -20.7485
v  -14.1594 0.6679 -16.3820
v  -3.5851 2.6403 -20.5465
v  2.0227 2.3924 -22.0704
v  6.7963 1.9190 -22.1281
v  14.5240 1.6497 -20.8760
v  -16.2603 -2.2199 22.2267
v  -8.7092 -1.4371 25.2311
v  -8.7092 0.0475 23.2297
v  -14.1550 -0.7353 18.8352
v  -4.0303 -1.2268 25.2311
v  -4.0303 0.9128 23.3933
v  2.1455 -1.5147 25.2311
v  2.1455 0.5774 23.7902
v  15.1933 -0.9955 25.1836
v  12.9578 0.3003 23.2214
v  17.4267 -0.9955 19.4269
v  15.4870 0.4891 18.2209
v  19.7045 -1.1984 13.4042
v  16.9857 0.2863 13.4042
v  20.0657 -2.1586 2.9987
v  17.5976 0.0062 3.0162
v  19.2532 -2.6115 -1.6648
v  17.6427 0.4381 -1.5951
v  19.8692 -2.3508 -7.1615
v  19.9001 -1.7567 -15.2296
v  17.9880 0.1321 -14.8300
v  17.0930 0.3631 -7.0503
v  17.3062 -0.7272 -24.9036
v  16.2090 0.7575 -23.0873
v  6.3865 -1.2525 -25.2512
v  6.3865 0.2322 -23.4598
v  1.9432 -0.1782 -24.9282
v  2.0227 1.2687 -23.2855
v  -3.7546 -0.2484 -24.8903
v  -3.7207 1.0462 -23.8728
v  -8.9161 -0.7132 -24.5415
v  -8.9176 0.7714 -22.6389
v  -14.2910 -4.0843 -22.7761
v  -13.7924 -2.7900 -21.3192
v  -17.9366 -3.6379 -15.9674
v  -17.1559 -0.9341 -13.0222
v  -19.8539 -1.8690 -6.3081
v  -17.7217 -0.3261 -6.3333
v  -20.0657 -1.4945 -1.8398
v  -17.7820 -0.0099 -1.8398
v  -19.9097 -1.2282 2.6987
v  -18.4141 -2.2225 11.7056
v  -16.3870 0.5743 11.7056
v  -17.6259 0.5743 2.6987
# 86 vertices

vn -0.5001 0.7791 0.3781
vn -0.2929 0.9062 0.3051
vn -0.0976 0.9915 0.0854
vn -0.4393 0.8741 0.2075
vn -0.0122 0.9806 0.1955
vn 0.0611 0.9963 0.0611
vn 0.0244 0.9805 0.1952
vn 0.0000 0.9925 0.1221
vn 0.1466 0.9644 0.2199
vn 0.0610 0.9963 0.0610
vn 0.3355 0.9189 0.2074
vn 0.4454 0.8886 0.1098
vn -0.0854 0.9915 -0.0976
vn -0.3173 0.9480 0.0244
vn -0.0611 0.9906 0.1221
vn 0.0244 0.9997 -0.0000
vn 0.1710 0.9853 -0.0000
vn 0.3909 0.9191 -0.0489
vn -0.2197 0.9743 0.0488
vn -0.3790 0.9254 -0.0000
vn -0.1099 0.9848 0.1343
vn 0.1099 0.9903 -0.0854
vn 0.1221 0.9925 -0.0000
vn 0.2318 0.9715 -0.0488
vn -0.4638 0.8856 0.0244
vn -0.2074 0.9782 -0.0122
vn -0.0610 0.9891 -0.1341
vn -0.6001 0.7923 -0.1102
vn 0.0122 0.9873 -0.1587
vn -0.1586 0.9653 -0.2074
vn 0.0976 0.9940 -0.0488
vn -0.0733 0.9966 -0.0366
vn 0.1098 0.9937 0.0244
vn 0.0915 0.9931 -0.0732
vn 0.2319 0.9727 -0.0000
vn 0.4084 0.9121 0.0366
vn -0.2923 0.8838 -0.3654
vn -0.6580 0.6367 -0.4021
vn -0.0366 0.9801 -0.1953
vn 0.0000 0.9097 -0.4152
vn 0.0976 0.8302 -0.5489
vn 0.1830 0.9739 -0.1342
vn -0.3051 0.9267 0.2197
vn -0.1589 0.7939 0.5869
vn -0.3284 0.8096 0.4865
vn -0.3048 0.9206 0.2439
vn 0.0000 0.6524 0.7579
vn -0.0732 0.8483 0.5244
vn 0.0000 0.5696 0.8219
vn 0.0244 0.8182 0.5745
vn 0.2316 0.9110 0.3412
vn 0.1771 0.9183 0.3542
vn 0.5196 0.8345 0.1834
vn 0.4884 0.8532 0.1832
vn 0.4768 0.8787 0.0245
vn 0.5731 0.8162 0.0732
vn 0.6533 0.7472 -0.1221
vn 0.6157 0.7864 0.0488
vn 0.8839 0.4663 -0.0366
vn 0.6541 0.7564 -0.0000
vn 0.6968 0.7121 0.0856
vn 0.7008 0.7130 -0.0244
vn 0.6398 0.7685 -0.0122
vn 0.4706 0.8823 -0.0122
vn 0.3674 0.8189 -0.4409
vn 0.3535 0.8661 -0.3535
vn 0.0611 0.7698 -0.6354
vn 0.0612 0.7016 -0.7100
vn 0.0611 0.7487 -0.6601
vn 0.0975 0.7357 -0.6702
vn -0.0612 0.6192 -0.7828
vn -0.0733 0.7688 -0.6352
vn -0.3548 0.7372 -0.5751
vn -0.4031 0.7223 -0.5619
vn -0.6001 0.6904 -0.4041
vn -0.6199 0.6594 -0.4254
vn -0.7078 0.6041 -0.3661
vn -0.8317 0.4923 -0.2568
vn -0.5758 0.7994 -0.1715
vn -0.6343 0.7669 -0.0976
vn -0.5477 0.8345 -0.0609
vn -0.5742 0.8154 -0.0733
vn -0.6208 0.7806 0.0730
vn -0.7948 0.5785 0.1834
vn -0.6701 0.7128 0.2071
vn -0.5380 0.8429 -0.0122
# 86 vertex normals

vt 0.1682 0.8888 0.0000
vt 0.1022 0.8129 0.0000
vt 0.2659 0.8100 0.0000
vt 0.2643 0.9561 0.0000
vt 0.0921 0.7178 0.0000
vt 0.2648 0.7162 0.0000
vt 0.1061 0.5917 0.0000
vt 0.2649 0.5915 0.0000
vt 0.0976 0.3891 0.0000
vt 0.2654 0.5025 0.0000
vt 0.1427 0.3483 0.0000
vt 0.2264 0.3176 0.0000
vt 0.4489 0.8139 0.0000
vt 0.4483 0.9580 0.0000
vt 0.4482 0.7181 0.0000
vt 0.4492 0.5913 0.0000
vt 0.4490 0.5004 0.0000
vt 0.4400 0.3127 0.0000
vt 0.5388 0.8202 0.0000
vt 0.5406 0.9632 0.0000
vt 0.5399 0.7165 0.0000
vt 0.5402 0.5904 0.0000
vt 0.5408 0.5001 0.0000
vt 0.5342 0.3477 0.0000
vt 0.6324 0.9565 0.0000
vt 0.6309 0.8156 0.0000
vt 0.7000 0.8004 0.0000
vt 0.7356 0.9626 0.0000
vt 0.6292 0.7168 0.0000
vt 0.7170 0.7077 0.0000
vt 0.6322 0.5903 0.0000
vt 0.8161 0.5946 0.0000
vt 0.6325 0.5005 0.0000
vt 0.8172 0.4730 0.0000
vt 0.6459 0.3467 0.0000
vt 0.8106 0.3159 0.0000
vt 0.9244 0.8195 0.0000
vt 0.8366 0.9304 0.0000
vt 0.9235 0.7127 0.0000
vt 0.9554 0.5996 0.0000
vt 0.9587 0.5020 0.0000
vt 0.9331 0.3442 0.0000
vt 0.0390 0.9791 0.0000
vt -0.0248 0.8224 0.0000
vt 0.0245 0.8170 0.0000
vt 0.1116 0.9339 0.0000
vt -0.0326 0.7221 0.0000
vt 0.0243 0.7188 0.0000
vt -0.0371 0.5910 0.0000
vt 0.0143 0.5918 0.0000
vt -0.0168 0.3216 0.0000
vt 0.0275 0.3695 0.0000
vt 0.1007 0.2686 0.0000
vt 0.1299 0.3157 0.0000
vt 0.2256 0.2172 0.0000
vt 0.2280 0.2799 0.0000
vt 0.4411 0.1972 0.0000
vt 0.4421 0.2638 0.0000
vt 0.5394 0.1996 0.0000
vt 0.5376 0.2685 0.0000
vt 0.6541 0.1978 0.0000
vt 0.8221 0.2087 0.0000
vt 0.8114 0.2628 0.0000
vt 0.6507 0.2775 0.0000
vt 1.0206 0.2795 0.0000
vt 0.9781 0.3087 0.0000
vt 1.0495 0.5063 0.0000
vt 1.0020 0.5084 0.0000
vt 1.0326 0.6022 0.0000
vt 0.9883 0.6007 0.0000
vt 1.0323 0.7243 0.0000
vt 0.9989 0.7202 0.0000
vt 1.0177 0.8375 0.0000
vt 0.9702 0.8280 0.0000
vt 0.9914 0.9761 0.0000
vt 0.9565 0.9563 0.0000
vt 0.8450 1.0514 0.0000
vt 0.7745 1.0091 0.0000
vt 0.6361 1.0672 0.0000
vt 0.6349 1.0143 0.0000
vt 0.5412 1.0690 0.0000
vt 0.5410 1.0132 0.0000
vt 0.4447 1.0625 0.0000
vt 0.2530 1.0417 0.0000
vt 0.2622 0.9739 0.0000
vt 0.4465 1.0034 0.0000
# 86 texture coords

o Box2077
g Box2077
usemtl 02___Default
s 1048644
f 1/1/1 2/2/2 3/3/3 4/4/4 
f 2/2/2 5/5/5 6/6/6 3/3/3 
f 5/5/5 7/7/7 8/8/8 6/6/6 
f 7/7/7 9/9/9 10/10/10 8/8/8 
f 9/9/9 11/11/11 12/12/12 10/10/10 
f 4/4/4 3/3/3 13/13/13 14/14/14 
f 3/3/3 6/6/6 15/15/15 13/13/13 
f 6/6/6 8/8/8 16/16/16 15/15/15 
f 8/8/8 10/10/10 17/17/17 16/16/16 
f 10/10/10 12/12/12 18/18/18 17/17/17 
f 14/14/14 13/13/13 19/19/19 20/20/20 
f 13/13/13 15/15/15 21/21/21 19/19/19 
f 15/15/15 16/16/16 22/22/22 21/21/21 
f 16/16/16 17/17/17 23/23/23 22/22/22 
f 17/17/17 18/18/18 24/24/24 23/23/23 
f 25/25/25 26/26/26 27/27/27 28/28/28 
f 26/26/26 29/29/29 30/30/30 27/27/27 
f 29/29/29 31/31/31 32/32/32 30/30/30 
f 31/31/31 33/33/33 34/34/34 32/32/32 
f 33/33/33 35/35/35 36/36/36 34/34/34 
f 28/28/28 27/27/27 37/37/37 38/38/38 
f 27/27/27 30/30/30 39/39/39 37/37/37 
f 30/30/30 32/32/32 40/40/40 39/39/39 
f 32/32/32 34/34/34 41/41/41 40/40/40 
f 34/34/34 36/36/36 42/42/42 41/41/41 
s 8
f 43/43/43 44/44/44 45/45/45 46/46/46 
f 44/44/44 47/47/47 48/48/48 45/45/45 
f 47/47/47 49/49/49 50/50/50 48/48/48 
f 49/49/49 51/51/51 52/52/52 50/50/50 
f 51/51/51 53/53/53 54/54/54 52/52/52 
s 16
f 53/53/53 55/55/55 56/56/56 54/54/54 
s 1048656
f 55/55/55 57/57/57 58/58/58 56/56/56 
f 57/57/57 59/59/59 60/60/60 58/58/58 
f 61/61/61 62/62/62 63/63/63 64/64/64 
f 62/62/62 65/65/65 66/66/66 63/63/63 
s 1048672
f 65/65/65 67/67/67 68/68/68 66/66/66 
f 67/67/67 69/69/69 70/70/70 68/68/68 
f 69/69/69 71/71/71 72/72/72 70/70/70 
f 71/71/71 73/73/73 74/74/74 72/72/72 
f 73/73/73 75/75/75 76/76/76 74/74/74 
s 64
f 75/75/75 77/77/77 78/78/78 76/76/76 
f 77/77/77 79/79/79 80/80/80 78/78/78 
f 79/79/79 81/81/81 82/82/82 80/80/80 
f 83/83/83 84/84/84 85/85/85 86/86/86 
f 84/84/84 43/43/43 46/46/46 85/85/85 
s 1048644
f 19/19/19 26/26/26 25/25/25 20/20/20 
f 21/21/21 29/29/29 26/26/26 19/19/19 
f 22/22/22 31/31/31 29/29/29 21/21/21 
f 23/23/23 33/33/33 31/31/31 22/22/22 
f 24/24/24 35/35/35 33/33/33 23/23/23 
s 1048656
f 59/59/59 61/61/61 64/64/64 60/60/60 
s 64
f 81/81/81 83/83/83 86/86/86 82/82/82 
s 8
f 45/45/45 2/2/2 1/1/1 46/46/46 
f 48/48/48 5/5/5 2/2/2 45/45/45 
f 50/50/50 7/7/7 5/5/5 48/48/48 
f 52/52/52 9/9/9 7/7/7 50/50/50 
f 54/54/54 11/11/11 9/9/9 52/52/52 
s 16
f 56/56/56 12/12/12 11/11/11 54/54/54 
s 1048656
f 58/58/58 18/18/18 12/12/12 56/56/56 
f 60/60/60 24/24/24 18/18/18 58/58/58 
f 63/63/63 36/36/36 35/35/35 64/64/64 
f 66/66/66 42/42/42 36/36/36 63/63/63 
s 1048672
f 68/68/68 41/41/41 42/42/42 66/66/66 
f 70/70/70 40/40/40 41/41/41 68/68/68 
f 72/72/72 39/39/39 40/40/40 70/70/70 
f 74/74/74 37/37/37 39/39/39 72/72/72 
f 76/76/76 38/38/38 37/37/37 74/74/74 
s 64
f 78/78/78 28/28/28 38/38/38 76/76/76 
f 80/80/80 25/25/25 28/28/28 78/78/78 
f 82/82/82 20/20/20 25/25/25 80/80/80 
f 85/85/85 4/4/4 14/14/14 86/86/86 
f 46/46/46 1/1/1 4/4/4 85/85/85 
s 1048656
f 64/64/64 35/35/35 24/24/24 60/60/60 
s 64
f 86/86/86 14/14/14 20/20/20 82/82/82 
# 74 polygons

