# 3ds Max Wavefront OBJ Exporter v0.97b - (c)2007 guruware
# File Created: 20.01.2020 01:18:46

#
# object Box2311
#

v  -180.5977 8.3205 -921.2920
v  -196.2824 8.3205 -930.3475
v  -191.9469 8.3205 -937.8569
v  -176.2622 8.3205 -928.8013
v  -196.2824 23.5744 -930.3475
v  -180.5977 23.5744 -921.2920
v  -179.0293 22.3269 -924.0085
v  -181.2693 20.6837 -931.7183
v  -191.9356 20.6837 -937.8765
v  -196.4842 8.8717 -931.1005
v  -196.4842 22.9476 -931.1005
v  -192.4243 20.1155 -938.1325
v  -192.4243 8.8717 -938.1325
v  -207.0754 8.8717 -911.6536
v  -191.3907 8.8717 -902.5980
v  -191.3907 16.3960 -902.5980
v  -196.4091 22.1908 -905.4954
v  -207.0754 22.1908 -911.6536
v  -185.2412 8.8717 -912.1467
v  -180.3959 8.8717 -920.5390
v  -180.3959 23.1800 -920.5390
v  -185.2412 25.0803 -912.1467
v  -175.9866 8.8717 -929.2787
v  -191.6713 8.8717 -938.3343
v  -191.6713 19.9761 -938.3343
v  -181.0050 19.9761 -932.1761
v  -175.9866 14.1813 -929.2787
v  -185.9942 8.3205 -911.9450
v  -191.1151 8.3205 -903.0754
v  -206.7998 8.3205 -912.1309
v  -201.6789 8.3205 -921.0005
v  -201.6789 25.8509 -921.0005
v  -206.8105 22.8946 -912.1123
v  -196.1443 22.8946 -905.9541
v  -188.3417 24.4985 -907.8791
v  -185.9942 25.8509 -911.9450
v  -202.4319 8.8717 -920.7988
v  -207.2772 8.8717 -912.4066
v  -207.2772 22.3272 -912.4066
v  -202.4319 25.1185 -920.7988
v  -197.0354 8.8717 -930.1458
v  -201.8807 8.8717 -921.7535
v  -201.8807 25.0803 -921.7535
v  -197.0354 23.1800 -930.1458
v  -179.8447 8.8717 -921.4938
v  -175.7848 8.8717 -928.5257
v  -175.7848 14.2265 -928.5257
v  -178.6084 21.7855 -923.6350
v  -179.8447 22.9476 -921.4938
v  -185.7924 25.1185 -911.1920
v  -187.8092 23.9567 -907.6989
v  -190.6377 16.4401 -902.7997
v  -190.6377 8.8717 -902.7997
v  -185.7924 8.8717 -911.1920
v  -176.1190 15.4185 -928.8929
v  -180.2843 20.2283 -931.2977
v  -178.4251 21.5922 -924.8985
v  -191.1216 17.6305 -902.9065
v  -188.8109 23.7708 -906.9086
v  -195.2864 22.4397 -905.3110
# 60 vertices

vn 0.3314 -0.9239 0.1913
vn -0.3314 -0.9239 -0.1913
vn -0.1251 -0.8756 -0.4666
vn 0.4666 -0.8756 -0.1250
vn -0.1825 0.9082 -0.3766
vn 0.4222 0.9050 -0.0521
vn 0.5637 0.8174 -0.1184
vn 0.3624 0.8085 -0.4636
vn -0.0260 0.7778 -0.6279
vn -0.8001 -0.3827 -0.4619
vn -0.7051 0.4308 -0.5633
vn -0.5481 0.2910 -0.7842
vn -0.5875 -0.3416 -0.7336
vn -0.7336 -0.3416 0.5875
vn -0.1420 -0.3416 0.9291
vn -0.1131 0.0845 0.9900
vn -0.3985 0.3313 0.8552
vn -0.7425 0.2747 0.6110
vn 0.8001 -0.3827 0.4619
vn 0.8306 0.4008 0.3866
vn 0.8373 0.3447 0.4244
vn 0.7336 -0.3416 -0.5875
vn 0.1420 -0.3416 -0.9291
vn 0.1581 0.2731 -0.9489
vn 0.5413 0.3295 -0.7735
vn 0.8008 0.0841 -0.5930
vn 0.1250 -0.8756 0.4666
vn -0.4666 -0.8756 0.1251
vn -0.3605 0.9153 -0.1795
vn -0.5489 0.7891 0.2757
vn -0.2178 0.8115 0.5423
vn 0.1768 0.8548 0.4879
vn 0.3357 0.9153 0.2225
vn -0.9291 -0.3416 -0.1420
vn -0.9499 0.2996 -0.0888
vn -0.8353 0.3816 -0.3957
vn -0.7862 0.3447 -0.5129
vn -0.7501 0.4008 -0.5260
vn 0.9291 -0.3416 0.1420
vn 0.9908 0.0848 0.1051
vn 0.9005 0.3408 0.2702
vn 0.8457 0.4587 0.2727
vn 0.7603 0.3816 0.5256
vn 0.6917 0.3650 0.6232
vn 0.5864 0.0852 0.8055
vn 0.5875 -0.3416 0.7336
vn 0.8915 0.3347 -0.3055
vn 0.6595 0.5662 -0.4944
vn 0.7975 0.5862 -0.1427
vn 0.1827 0.3359 0.9240
vn 0.2776 0.5882 0.7596
vn -0.0959 0.5686 0.8170
# 52 vertex normals

vt 0.2430 0.5444 0.0000
vt 0.2430 0.6409 0.0000
vt 0.1969 0.6409 0.0000
vt 0.1969 0.5444 0.0000
vt 0.2399 0.4020 0.0000
vt 0.2399 0.4997 0.0000
vt 0.2229 0.4997 0.0000
vt 0.1930 0.4684 0.0000
vt 0.1930 0.4020 0.0000
vt 0.6164 0.3274 0.0000
vt 0.6164 0.3954 0.0000
vt 0.5772 0.3817 0.0000
vt 0.5772 0.3274 0.0000
vt 0.3923 0.3065 0.0000
vt 0.5044 0.3065 0.0000
vt 0.5044 0.3531 0.0000
vt 0.4685 0.3889 0.0000
vt 0.3923 0.3889 0.0000
vt 0.6318 0.4095 0.0000
vt 0.6786 0.4095 0.0000
vt 0.6786 0.4786 0.0000
vt 0.6318 0.4878 0.0000
vt 0.3914 0.4103 0.0000
vt 0.5461 0.4103 0.0000
vt 0.5461 0.5051 0.0000
vt 0.4409 0.5051 0.0000
vt 0.3914 0.4557 0.0000
vt 0.3005 0.5444 0.0000
vt 0.3551 0.5444 0.0000
vt 0.3551 0.6409 0.0000
vt 0.3005 0.6409 0.0000
vt 0.2981 0.4020 0.0000
vt 0.3535 0.4020 0.0000
vt 0.3535 0.4684 0.0000
vt 0.3234 0.4997 0.0000
vt 0.2981 0.4997 0.0000
vt 0.6738 0.3274 0.0000
vt 0.7205 0.3274 0.0000
vt 0.7205 0.3924 0.0000
vt 0.6738 0.4058 0.0000
vt 0.6217 0.3274 0.0000
vt 0.6684 0.3274 0.0000
vt 0.6684 0.4056 0.0000
vt 0.6217 0.3965 0.0000
vt 0.6839 0.4095 0.0000
vt 0.7231 0.4095 0.0000
vt 0.7231 0.4354 0.0000
vt 0.6958 0.4719 0.0000
vt 0.6839 0.4775 0.0000
vt 0.6265 0.4879 0.0000
vt 0.6070 0.4823 0.0000
vt 0.5797 0.4461 0.0000
vt 0.5797 0.4095 0.0000
vt 0.6265 0.4095 0.0000
vt 0.7578 0.5573 0.0000
vt 0.7101 0.5264 0.0000
vt 0.7567 0.4765 0.0000
vt 0.7793 0.5565 0.0000
vt 0.7810 0.4855 0.0000
vt 0.8228 0.5332 0.0000
vt 0.1969 0.6438 0.0000
vt 0.1939 0.6409 0.0000
vt 0.3580 0.6409 0.0000
vt 0.3551 0.6438 0.0000
vt 0.1939 0.5444 0.0000
vt 0.1969 0.5415 0.0000
vt 0.3551 0.5415 0.0000
vt 0.3580 0.5444 0.0000
vt 0.5508 0.5063 0.0000
vt 0.5461 0.5112 0.0000
vt 0.7232 0.3917 0.0000
vt 0.7207 0.3951 0.0000
vt 0.3908 0.4662 0.0000
vt 0.3867 0.4560 0.0000
vt 0.5790 0.4518 0.0000
vt 0.5770 0.4458 0.0000
vt 0.2401 0.5415 0.0000
vt 0.2460 0.5415 0.0000
vt 0.2976 0.5415 0.0000
vt 0.3035 0.5415 0.0000
vt 0.3035 0.6438 0.0000
vt 0.2976 0.6438 0.0000
vt 0.2460 0.6438 0.0000
vt 0.2401 0.6438 0.0000
vt 0.6190 0.3984 0.0000
vt 0.5770 0.3844 0.0000
vt 0.6711 0.4094 0.0000
vt 0.6291 0.4915 0.0000
vt 0.6812 0.4805 0.0000
vt 0.6964 0.4745 0.0000
vt 0.1923 0.4742 0.0000
vt 0.1901 0.4684 0.0000
vt 0.7016 0.4709 0.0000
vt 0.6065 0.4850 0.0000
vt 0.6013 0.4814 0.0000
vt 0.4751 0.3905 0.0000
vt 0.4685 0.3933 0.0000
vt 0.5461 0.4056 0.0000
vt 0.3914 0.4056 0.0000
vt 0.5044 0.3031 0.0000
vt 0.3923 0.3031 0.0000
vt 0.3923 0.3933 0.0000
vt 0.1901 0.4020 0.0000
vt 0.7232 0.3274 0.0000
vt 0.5508 0.4103 0.0000
vt 0.5770 0.4095 0.0000
vt 0.3867 0.4103 0.0000
vt 0.4319 0.5073 0.0000
vt 0.2172 0.5001 0.0000
vt 0.7238 0.4411 0.0000
vt 0.3292 0.5001 0.0000
vt 0.3542 0.4742 0.0000
vt 0.5049 0.3607 0.0000
# 113 texture coords

o Box2311
g Box2311
s 1
f 1/1/1 2/2/2 3/3/3 4/4/4 
f 5/5/5 6/6/6 7/7/7 8/8/8 9/9/9 
f 10/10/10 11/11/11 12/12/12 13/13/13 
f 14/14/14 15/15/15 16/16/16 17/17/17 18/18/18 
f 19/19/19 20/20/19 21/21/20 22/22/21 
f 23/23/22 24/24/23 25/25/24 26/26/25 27/27/26 
f 28/28/1 29/29/27 30/30/28 31/31/2 
f 1/1/1 28/28/1 31/31/2 2/2/2 
f 32/32/29 33/33/30 34/34/31 35/35/32 36/36/33 
f 5/5/5 32/32/29 36/36/33 6/6/6 
f 37/37/10 38/38/34 39/39/35 40/40/36 
f 41/41/10 42/42/10 43/43/37 44/44/38 
f 45/45/19 46/46/39 47/47/40 48/48/41 49/49/42 
f 50/50/43 51/51/44 52/52/45 53/53/46 54/54/19 
f 55/55/47 56/56/48 57/57/49 
f 58/58/50 59/59/51 60/60/52 
s 2
f 3/3/3 13/61/13 24/62/23 
f 14/63/14 38/64/34 30/30/28 
f 23/65/22 46/66/39 4/4/4 
f 29/29/27 53/67/46 15/68/15 
f 12/69/12 9/70/9 25/25/24 
f 18/71/18 33/72/30 39/39/35 
s 1
f 27/27/26 55/73/47 47/74/40 
f 52/52/45 58/75/50 16/76/16 
s 4
f 45/77/19 1/1/1 4/4/4 46/66/39 
f 45/77/19 20/78/19 1/1/1 
f 28/28/1 19/79/19 54/80/19 
f 37/81/10 42/82/10 31/31/2 
f 2/2/2 41/83/10 10/84/10 
f 2/2/2 10/84/10 13/61/13 3/3/3 
f 11/11/11 5/85/5 9/86/9 12/12/12 
f 44/44/38 5/85/5 11/11/11 
f 32/87/29 43/43/37 40/40/36 
s 1
f 22/22/21 36/88/33 50/50/43 
f 49/49/42 6/89/6 21/21/20 
f 48/48/41 7/90/7 6/89/6 49/49/42 
f 8/8/8 56/91/48 26/92/25 
f 57/93/49 7/90/7 48/48/41 
f 51/51/44 35/94/32 59/95/51 
f 17/17/17 60/96/52 34/97/31 
s 8
f 3/98/3 24/24/23 23/23/22 4/99/4 
f 29/100/27 15/15/15 14/14/14 30/101/28 
s 4
f 30/30/28 38/64/34 37/81/10 31/31/2 
s 1
f 33/102/30 18/18/18 17/17/17 34/97/31 
f 35/94/32 51/51/44 50/50/43 36/88/33 
f 8/8/8 26/92/25 25/103/24 9/9/9 
s 16
f 38/38/34 14/104/14 18/71/18 39/39/35 
f 12/69/12 25/25/24 24/24/23 13/105/13 
s 1
f 15/106/15 53/53/46 52/52/45 16/76/16 
f 46/107/39 23/23/22 27/27/26 47/74/40 
s 4
f 1/1/1 20/78/19 19/79/19 28/28/1 
f 28/28/1 54/80/19 53/67/46 29/29/27 
f 31/31/2 42/82/10 41/83/10 2/2/2 
f 5/85/5 44/44/38 43/43/37 32/87/29 
f 32/87/29 40/40/36 39/39/35 33/72/30 
s 1
f 36/88/33 22/22/21 21/21/20 6/89/6 
f 42/42/10 37/37/10 40/40/36 43/43/37 
f 10/10/10 41/41/10 44/44/38 11/11/11 
f 20/20/19 45/45/19 49/49/42 21/21/20 
f 22/22/21 50/50/43 54/54/19 19/19/19 
f 55/73/47 27/27/26 26/26/25 56/108/48 
f 56/91/48 8/8/8 7/7/7 57/109/49 
f 57/93/49 48/48/41 47/47/40 55/110/47 
f 58/75/50 52/52/45 51/51/44 59/95/51 
f 59/111/51 35/35/32 34/34/31 60/112/52 
f 60/96/52 17/17/17 16/16/16 58/113/50 
# 44 polygons - 22 triangles

