# 3ds Max Wavefront OBJ Exporter v0.97b - (c)2007 guruware
# File Created: 26.10.2019 22:10:53

mtllib Door.mtl

#
# object Box2182
#

v  10.1241 -58.0506 3.9876
v  10.1241 -58.0506 -3.9876
v  43.9796 -58.0506 -3.9876
v  43.9796 -58.0506 3.9876
v  10.2958 58.0506 3.9876
v  18.4535 56.5187 3.9876
v  18.4535 56.5187 -3.9876
v  10.1063 58.0506 -3.9876
v  43.7973 20.2163 3.9876
v  43.3686 28.0750 3.9876
v  10.1241 27.9425 3.9876
v  10.1241 20.2163 3.9876
v  43.7973 20.2163 -3.9876
v  43.3686 28.0750 -3.9876
v  10.1241 20.2163 -3.9876
v  10.1241 27.9425 -3.9876
v  25.8606 52.7690 3.9876
v  10.1241 52.8467 3.9876
v  32.9948 47.1963 3.9876
v  10.1241 47.0227 3.9876
v  37.5093 41.9236 3.9876
v  10.1241 41.9660 3.9876
v  41.1086 35.8772 3.9876
v  10.1241 35.9456 3.9876
v  10.1241 -51.5102 3.9876
v  43.9796 -51.5102 3.9876
v  10.1241 -38.4294 3.9876
v  43.9796 -38.4294 3.9876
v  10.1241 3.7358 3.9876
v  43.9796 3.7358 3.9876
v  25.8606 52.7690 -3.9876
v  32.9948 47.1963 -3.9876
v  37.5093 41.9236 -3.9876
v  41.1086 35.8772 -3.9876
v  43.9796 -51.5102 -3.9876
v  43.9796 -38.4294 -3.9876
v  43.9796 3.7358 -3.9876
v  10.1241 53.0968 -3.9876
v  10.1241 47.0227 -3.9876
v  10.1241 41.9660 -3.9876
v  10.1241 35.9456 -3.9876
v  10.1241 -51.5102 -3.9876
v  10.1241 -38.4294 -3.9876
v  10.1241 3.7358 -3.9876
# 44 vertices

vn -0.5774 -0.5774 0.5774
vn -0.5774 -0.5774 -0.5774
vn 0.5774 -0.5774 -0.5774
vn 0.5774 -0.5774 0.5774
vn -0.5061 0.6427 0.5752
vn 0.2366 0.6972 0.6767
vn 0.2353 0.6981 -0.6763
vn -0.5359 0.6296 -0.5626
vn 0.7115 0.0233 0.7023
vn 0.7206 0.1224 0.6825
vn -0.7071 0.0000 0.7071
vn 0.7115 0.0233 -0.7023
vn 0.7206 0.1224 -0.6825
vn -0.7071 0.0000 -0.7071
vn 0.3901 0.6142 0.6859
vn -0.7105 0.0115 0.7036
vn 0.5032 0.5263 0.6854
vn 0.5893 0.4229 0.6884
vn 0.6730 0.2920 0.6796
vn 0.7071 0.0000 0.7071
vn -0.7071 -0.0000 0.7071
vn 0.7083 0.0039 0.7059
vn 0.3901 0.6142 -0.6859
vn 0.5032 0.5263 -0.6854
vn 0.5893 0.4229 -0.6884
vn 0.6730 0.2920 -0.6796
vn 0.7071 0.0000 -0.7071
vn 0.7083 0.0039 -0.7059
vn -0.7067 -0.0013 -0.7075
vn -0.7071 -0.0000 -0.7071
# 30 vertex normals

vt 0.9980 0.0022 0.0000
vt 0.9980 0.2926 0.0000
vt 0.0020 0.7828 0.0000
vt 0.0151 0.7128 0.0000
vt 0.0020 0.7844 0.0000
vt 0.3266 0.2910 0.0000
vt 0.2592 0.2873 0.0000
vt 0.2603 0.0022 0.0000
vt 0.3266 0.0022 0.0000
vt 0.3266 0.7843 0.0000
vt 0.2603 0.7843 0.0000
vt 0.2592 0.4991 0.0000
vt 0.3266 0.4954 0.0000
vt 0.3266 0.4400 0.0000
vt 0.2603 0.4400 0.0000
vt 0.2603 0.3716 0.0000
vt 0.3266 0.3716 0.0000
vt 0.0473 0.1372 0.0000
vt 0.0151 0.0736 0.0000
vt 0.0020 0.0036 0.0000
vt 0.0466 0.0022 0.0000
vt 0.0951 0.1984 0.0000
vt 0.0966 0.0022 0.0000
vt 0.1403 0.2371 0.0000
vt 0.1400 0.0022 0.0000
vt 0.1922 0.2680 0.0000
vt 0.1916 0.0022 0.0000
vt 0.9419 0.0022 0.0000
vt 0.9419 0.2926 0.0000
vt 0.8297 0.0022 0.0000
vt 0.8297 0.2926 0.0000
vt 0.4680 0.0022 0.0000
vt 0.4680 0.2926 0.0000
vt 0.0445 0.7843 0.0000
vt 0.0473 0.6493 0.0000
vt 0.0966 0.7843 0.0000
vt 0.0951 0.5880 0.0000
vt 0.1400 0.7843 0.0000
vt 0.1403 0.5493 0.0000
vt 0.1916 0.7843 0.0000
vt 0.1922 0.5184 0.0000
vt 0.9419 0.4938 0.0000
vt 0.9980 0.4938 0.0000
vt 0.9980 0.7843 0.0000
vt 0.9419 0.7843 0.0000
vt 0.8297 0.4938 0.0000
vt 0.8297 0.7843 0.0000
vt 0.4680 0.4938 0.0000
vt 0.4680 0.7843 0.0000
vt 0.0466 0.4400 0.0000
vt 0.0020 0.4400 0.0000
vt 0.0020 0.3716 0.0000
vt 0.0445 0.3716 0.0000
vt 0.0966 0.4400 0.0000
vt 0.0966 0.3716 0.0000
vt 0.1400 0.4400 0.0000
vt 0.1400 0.3716 0.0000
vt 0.1916 0.4400 0.0000
vt 0.1916 0.3716 0.0000
vt 0.9419 0.3716 0.0000
vt 0.9980 0.3716 0.0000
vt 0.9980 0.4400 0.0000
vt 0.9419 0.4400 0.0000
vt 0.8297 0.3716 0.0000
vt 0.8297 0.4400 0.0000
vt 0.4680 0.3716 0.0000
vt 0.4680 0.4400 0.0000
# 67 texture coords

o Box2182
g Box2182
usemtl 15___Default
s 2
f 1/1/1 2/1/2 3/2/3 4/2/4 
s 4
f 5/3/5 6/4/6 7/4/7 8/5/8 
s 8
f 9/6/9 10/7/10 11/8/11 12/9/11 
s 16
f 13/6/12 14/7/13 10/7/10 9/6/9 
s 32
f 15/10/14 16/11/14 14/12/13 13/13/12 
s 64
f 12/14/11 11/15/11 16/16/14 15/17/14 
s 8
f 17/18/15 6/19/6 5/20/5 18/21/16 
f 19/22/17 17/18/15 18/21/16 20/23/11 
f 21/24/18 19/22/17 20/23/11 22/25/11 
f 23/26/19 21/24/18 22/25/11 24/27/11 
f 10/7/10 23/26/19 24/27/11 11/8/11 
f 25/28/11 1/1/1 4/2/4 26/29/20 
f 27/30/11 25/28/11 26/29/20 28/31/20 
f 29/32/21 27/30/11 28/31/20 30/33/22 
f 12/9/11 29/32/21 30/33/22 9/6/9 
s 16
f 31/18/23 7/19/7 6/19/6 17/18/15 
f 32/22/24 31/18/23 17/18/15 19/22/17 
f 33/24/25 32/22/24 19/22/17 21/24/18 
f 34/26/26 33/24/25 21/24/18 23/26/19 
f 14/7/13 34/26/26 23/26/19 10/7/10 
f 26/29/20 4/2/4 3/2/3 35/29/27 
f 28/31/20 26/29/20 35/29/27 36/31/27 
f 30/33/22 28/31/20 36/31/27 37/33/28 
f 9/6/9 30/33/22 37/33/28 13/6/12 
s 32
f 38/34/29 8/5/8 7/4/7 31/35/23 
f 39/36/30 38/34/29 31/35/23 32/37/24 
f 40/38/30 39/36/30 32/37/24 33/39/25 
f 41/40/14 40/38/30 33/39/25 34/41/26 
f 16/11/14 41/40/14 34/41/26 14/12/13 
f 35/42/27 3/43/3 2/44/2 42/45/30 
f 36/46/27 35/42/27 42/45/30 43/47/30 
f 37/48/28 36/46/27 43/47/30 44/49/14 
f 13/13/12 37/48/28 44/49/14 15/10/14 
s 64
f 18/50/16 5/51/5 8/52/8 38/53/29 
f 20/54/11 18/50/16 38/53/29 39/55/30 
f 22/56/11 20/54/11 39/55/30 40/57/30 
f 24/58/11 22/56/11 40/57/30 41/59/14 
f 11/15/11 24/58/11 41/59/14 16/16/14 
f 42/60/30 2/61/2 1/62/1 25/63/11 
f 43/64/30 42/60/30 25/63/11 27/65/11 
f 44/66/14 43/64/30 27/65/11 29/67/21 
f 15/17/14 44/66/14 29/67/21 12/14/11 
# 42 polygons

#
# object Box2183
#

v  10.1376 -58.0506 3.9876
v  -23.7179 -58.0506 3.9876
v  -23.7179 -58.0506 -3.9876
v  10.1376 -58.0506 -3.9876
v  9.9658 58.0506 3.9875
v  10.1553 58.0506 -3.9876
v  1.8081 56.5187 -3.9876
v  1.8081 56.5187 3.9875
v  -23.5356 20.2163 3.9875
v  10.1376 20.2163 3.9875
v  10.1376 27.9425 3.9875
v  -23.1070 28.0750 3.9875
v  -23.5356 20.2163 -3.9876
v  -23.1070 28.0750 -3.9876
v  10.1376 20.2163 -3.9876
v  10.1376 27.9425 -3.9876
v  -5.5990 52.7690 3.9875
v  10.1376 52.8467 3.9875
v  -12.7332 47.1963 3.9875
v  10.1376 47.0227 3.9875
v  -17.2477 41.9236 3.9875
v  10.1376 41.9660 3.9875
v  -20.8470 35.8772 3.9875
v  10.1376 35.9456 3.9875
v  10.1376 -51.5102 3.9876
v  -23.7179 -51.5102 3.9876
v  10.1376 -38.4294 3.9876
v  -23.7179 -38.4294 3.9876
v  10.1376 3.7358 3.9876
v  -23.7179 3.7358 3.9876
v  -5.5990 52.7690 -3.9876
v  -12.7332 47.1963 -3.9876
v  -17.2477 41.9236 -3.9876
v  -20.8470 35.8772 -3.9876
v  -23.7179 -51.5102 -3.9876
v  -23.7179 -38.4294 -3.9876
v  -23.7179 3.7358 -3.9876
v  10.1376 53.0968 -3.9876
v  10.1376 47.0227 -3.9876
v  10.1376 41.9660 -3.9876
v  10.1376 35.9456 -3.9876
v  10.1376 -51.5102 -3.9876
v  10.1376 -38.4294 -3.9876
v  10.1376 3.7358 -3.9876
# 44 vertices

vn 0.5774 -0.5774 0.5774
vn -0.5774 -0.5774 0.5774
vn -0.5774 -0.5774 -0.5774
vn 0.5774 -0.5774 -0.5774
vn 0.5061 0.6427 0.5752
vn 0.5359 0.6296 -0.5626
vn -0.2353 0.6981 -0.6763
vn -0.2366 0.6972 0.6767
vn -0.7115 0.0233 0.7023
vn 0.7071 0.0000 0.7071
vn -0.7207 0.1224 0.6824
vn -0.7116 0.0233 -0.7022
vn -0.7206 0.1224 -0.6825
vn 0.7071 -0.0000 -0.7071
vn -0.3902 0.6143 0.6859
vn 0.7105 0.0115 0.7036
vn -0.5032 0.5263 0.6854
vn -0.5893 0.4229 0.6884
vn -0.6730 0.2920 0.6796
vn -0.7071 0.0000 0.7071
vn -0.7083 0.0039 0.7059
vn -0.3901 0.6142 -0.6859
vn -0.5032 0.5264 -0.6853
vn -0.5893 0.4229 -0.6884
vn -0.6730 0.2920 -0.6796
vn -0.7071 -0.0000 -0.7071
vn -0.7083 0.0039 -0.7059
vn 0.7067 -0.0013 -0.7075
# 28 vertex normals

vt 0.9980 0.0022 0.0000
vt 0.9980 0.2926 0.0000
vt 0.0020 0.7828 0.0000
vt 0.0020 0.7844 0.0000
vt 0.0151 0.7128 0.0000
vt 0.3266 0.2910 0.0000
vt 0.3266 0.0022 0.0000
vt 0.2603 0.0022 0.0000
vt 0.2592 0.2873 0.0000
vt 0.3266 0.7843 0.0000
vt 0.3266 0.4954 0.0000
vt 0.2592 0.4991 0.0000
vt 0.2603 0.7843 0.0000
vt 0.3266 0.4400 0.0000
vt 0.3266 0.3716 0.0000
vt 0.2603 0.3716 0.0000
vt 0.2603 0.4400 0.0000
vt 0.0473 0.1372 0.0000
vt 0.0466 0.0022 0.0000
vt 0.0020 0.0036 0.0000
vt 0.0151 0.0736 0.0000
vt 0.0951 0.1984 0.0000
vt 0.0966 0.0022 0.0000
vt 0.1403 0.2371 0.0000
vt 0.1400 0.0022 0.0000
vt 0.1922 0.2680 0.0000
vt 0.1916 0.0022 0.0000
vt 0.9419 0.0022 0.0000
vt 0.9419 0.2926 0.0000
vt 0.8297 0.0022 0.0000
vt 0.8297 0.2926 0.0000
vt 0.4680 0.0022 0.0000
vt 0.4680 0.2926 0.0000
vt 0.0445 0.7843 0.0000
vt 0.0473 0.6493 0.0000
vt 0.0966 0.7843 0.0000
vt 0.0951 0.5880 0.0000
vt 0.1400 0.7843 0.0000
vt 0.1403 0.5493 0.0000
vt 0.1916 0.7843 0.0000
vt 0.1922 0.5184 0.0000
vt 0.9419 0.4938 0.0000
vt 0.9419 0.7843 0.0000
vt 0.9980 0.7843 0.0000
vt 0.9980 0.4938 0.0000
vt 0.8297 0.4938 0.0000
vt 0.8297 0.7843 0.0000
vt 0.4680 0.4938 0.0000
vt 0.4680 0.7843 0.0000
vt 0.0466 0.4400 0.0000
vt 0.0445 0.3716 0.0000
vt 0.0020 0.3716 0.0000
vt 0.0020 0.4400 0.0000
vt 0.0966 0.4400 0.0000
vt 0.0966 0.3716 0.0000
vt 0.1400 0.4400 0.0000
vt 0.1400 0.3716 0.0000
vt 0.1916 0.4400 0.0000
vt 0.1916 0.3716 0.0000
vt 0.9419 0.3716 0.0000
vt 0.9419 0.4400 0.0000
vt 0.9980 0.4400 0.0000
vt 0.9980 0.3716 0.0000
vt 0.8297 0.3716 0.0000
vt 0.8297 0.4400 0.0000
vt 0.4680 0.3716 0.0000
vt 0.4680 0.4400 0.0000
# 67 texture coords

o Box2183
g Box2183
usemtl 15___Default
s 2
f 45/68/31 46/69/32 47/69/33 48/68/34 
s 4
f 49/70/35 50/71/36 51/72/37 52/72/38 
s 8
f 53/73/39 54/74/40 55/75/40 56/76/41 
s 16
f 57/73/42 53/73/39 56/76/41 58/76/43 
s 32
f 59/77/44 57/78/42 58/79/43 60/80/44 
s 64
f 54/81/40 59/82/44 60/83/44 55/84/40 
s 8
f 61/85/45 62/86/46 49/87/35 52/88/38 
f 63/89/47 64/90/40 62/86/46 61/85/45 
f 65/91/48 66/92/40 64/90/40 63/89/47 
f 67/93/49 68/94/40 66/92/40 65/91/48 
f 56/76/41 55/75/40 68/94/40 67/93/49 
f 69/95/40 70/96/50 46/69/32 45/68/31 
f 71/97/40 72/98/50 70/96/50 69/95/40 
f 73/99/40 74/100/51 72/98/50 71/97/40 
f 54/74/40 53/73/39 74/100/51 73/99/40 
s 16
f 75/85/52 61/85/45 52/88/38 51/88/37 
f 76/89/53 63/89/47 61/85/45 75/85/52 
f 77/91/54 65/91/48 63/89/47 76/89/53 
f 78/93/55 67/93/49 65/91/48 77/91/54 
f 58/76/43 56/76/41 67/93/49 78/93/55 
f 70/96/50 79/96/56 47/69/33 46/69/32 
f 72/98/50 80/98/56 79/96/56 70/96/50 
f 74/100/51 81/100/57 80/98/56 72/98/50 
f 53/73/39 57/73/42 81/100/57 74/100/51 
s 32
f 82/101/58 75/102/52 51/72/37 50/71/36 
f 83/103/44 76/104/53 75/102/52 82/101/58 
f 84/105/44 77/106/54 76/104/53 83/103/44 
f 85/107/44 78/108/55 77/106/54 84/105/44 
f 60/80/44 58/79/43 78/108/55 85/107/44 
f 79/109/56 86/110/44 48/111/34 47/112/33 
f 80/113/56 87/114/44 86/110/44 79/109/56 
f 81/115/57 88/116/44 87/114/44 80/113/56 
f 57/78/42 59/77/44 88/116/44 81/115/57 
s 64
f 62/117/46 82/118/58 50/119/36 49/120/35 
f 64/121/40 83/122/44 82/118/58 62/117/46 
f 66/123/40 84/124/44 83/122/44 64/121/40 
f 68/125/40 85/126/44 84/124/44 66/123/40 
f 55/84/40 60/83/44 85/126/44 68/125/40 
f 86/127/44 69/128/40 45/129/31 48/130/34 
f 87/131/44 71/132/40 69/128/40 86/127/44 
f 88/133/44 73/134/40 71/132/40 87/131/44 
f 59/82/44 54/81/40 73/134/40 88/133/44 
# 42 polygons

