# 3ds Max Wavefront OBJ Exporter v0.97b - (c)2007 guruware
# File Created: 28.10.2019 18:15:39

mtllib Floor.mtl

#
# object Box2271
#

v  -59.9319 -15.0000 30.0000
v  -59.9319 -15.0000 -30.0000
v  59.9319 -15.0000 -30.0000
v  59.9319 -15.0000 30.0000
v  -59.9319 15.0000 27.6434
v  59.9319 15.0000 27.6434
v  59.9319 15.0000 -26.5737
v  -59.9319 15.0000 -26.5737
v  59.9319 12.6434 30.0000
v  -59.9319 12.6434 30.0000
v  59.9319 11.5737 -30.0000
v  -59.9319 11.5737 -30.0000
v  0.5754 15.0000 28.2869
v  0.5754 13.2869 30.0000
v  59.2885 13.2869 30.0000
v  59.2885 15.0000 28.2869
v  58.2188 14.5531 -28.7338
v  58.2188 13.7338 -29.5531
v  1.6451 13.6420 -29.6449
v  1.6451 14.6449 -28.6420
# 20 vertices

vn -0.5774 -0.5774 0.5774
vn -0.5774 -0.5774 -0.5774
vn 0.5774 -0.5774 -0.5774
vn 0.5774 -0.5774 0.5774
vn -0.6318 0.7169 0.2949
vn 0.6998 0.6998 0.1429
vn 0.6848 0.7104 -0.1624
vn -0.6342 0.7162 -0.2914
vn 0.6998 0.1429 0.6998
vn -0.6318 0.2949 0.7169
vn 0.6848 0.1624 -0.7104
vn -0.6342 0.2914 -0.7162
vn -0.0020 0.9234 0.3838
vn -0.0020 0.3838 0.9234
vn 0.2257 0.4329 0.8727
vn 0.2257 0.8727 0.4329
vn 0.2365 0.8237 -0.5153
vn 0.2365 0.5153 -0.8237
vn -0.0046 0.4442 -0.8959
vn -0.0046 0.8959 -0.4442
# 20 vertex normals

vt 0.0396 0.6563 0.0000
vt 0.0396 0.3263 0.0000
vt 0.6989 0.3263 0.0000
vt 0.6989 0.6563 0.0000
vt 0.9981 0.0005 0.0000
vt 0.9981 0.6598 0.0000
vt 0.6999 0.6598 0.0000
vt 0.6999 0.0005 0.0000
vt 0.0396 0.1699 0.0000
vt 0.6989 0.1699 0.0000
vt 0.6989 0.3220 0.0000
vt 0.0396 0.3220 0.0000
vt 0.6608 0.6608 0.0000
vt 0.9908 0.6608 0.0000
vt 0.9908 0.8070 0.0000
vt 0.9720 0.8258 0.0000
vt 0.6737 0.8258 0.0000
vt 0.6608 0.8128 0.0000
vt 0.0396 0.0222 0.0000
vt 0.6989 0.0222 0.0000
vt 0.6989 0.1684 0.0000
vt 0.0396 0.1684 0.0000
vt 0.0005 0.9995 0.0000
vt 0.0005 0.6695 0.0000
vt 0.1526 0.6695 0.0000
vt 0.1655 0.6824 0.0000
vt 0.1655 0.9807 0.0000
vt 0.1467 0.9995 0.0000
vt 0.3638 0.0172 0.0000
vt 0.3638 0.0041 0.0000
vt 0.6867 0.0046 0.0000
vt 0.6866 0.0175 0.0000
vt 0.0133 0.0154 0.0000
vt 0.0187 0.0154 0.0000
vt 0.0191 0.3264 0.0000
vt 0.0118 0.3264 0.0000
vt 0.0294 0.6652 0.0000
vt 0.0005 0.6651 0.0000
vt 0.0026 0.0048 0.0000
vt 0.0299 0.0051 0.0000
vt 0.0309 0.0200 0.0000
vt 0.0309 0.0005 0.0000
vt 0.6906 0.0018 0.0000
vt 0.6906 0.0204 0.0000
# 44 texture coords

o Box2271
g Box2271
usemtl 15___Default
s 1
f 1/1/1 2/2/2 3/3/3 4/4/4 
f 5/5/5 6/6/6 7/7/7 8/8/8 
s 2
f 1/9/1 4/10/4 9/11/9 10/12/10 
s 4
f 4/13/4 3/14/3 11/15/11 7/16/7 6/17/6 9/18/9 
s 2
f 3/19/3 2/20/2 12/21/12 11/22/11 
s 4
f 2/23/2 1/24/1 10/25/10 5/26/5 8/27/8 12/28/12 
f 13/29/13 14/30/14 15/31/15 16/32/16 
f 17/33/17 18/34/18 19/35/19 20/36/20 
s 8
f 19/35/19 12/37/12 8/38/8 20/36/20 
f 17/33/17 7/39/7 11/40/11 18/34/18 
s 1
f 7/39/7 17/33/17 20/36/20 8/38/8 
s 2
f 12/37/12 19/35/19 18/34/18 11/40/11 
s 8
f 13/29/13 5/41/5 10/42/10 14/30/14 
f 15/31/15 9/43/9 6/44/6 16/32/16 
s 2
f 9/43/9 15/31/15 14/30/14 10/42/10 
s 1
f 5/41/5 13/29/13 16/32/16 6/44/6 
# 16 polygons

