# 3ds Max Wavefront OBJ Exporter v0.97b - (c)2007 guruware
# File Created: 02.11.2019 15:49:51

#
# object Plane417
#

v  -18.5488 10.0698 2.0433
v  -18.5488 4.8924 2.0433
v  -12.0032 4.8924 -1.9288
v  -12.0032 10.0698 -1.9288
v  -4.3484 4.8924 -1.7617
v  -4.3484 10.0698 -1.7617
v  2.3335 4.8924 -5.2253
v  2.3335 10.0698 -5.2253
v  9.8520 4.8924 -5.5667
v  9.8520 10.0698 -5.5667
v  -18.5488 15.2471 2.0433
v  -12.0032 15.2471 -1.9288
v  -4.3484 15.2471 -1.7617
v  2.3335 15.2471 -5.2253
v  9.8520 15.2471 -5.5667
v  -18.5488 20.4244 2.0433
v  -12.0032 20.4244 -1.9288
v  -4.3484 20.4244 -1.7617
v  2.3335 20.4244 -5.2253
v  9.8520 20.4244 -5.5667
v  -18.5488 25.6017 2.0433
v  -12.0032 25.6017 -1.9288
v  -4.3484 25.6017 -1.7617
v  2.3335 25.6017 -5.2253
v  9.8520 25.6017 -5.5667
v  -3.0165 9.7390 -21.5363
v  -3.0165 4.8606 -21.5363
v  -4.2384 4.8606 -15.8529
v  -4.2384 9.7390 -15.8529
v  -7.1750 4.8606 -12.6185
v  -7.1750 9.7390 -12.6185
v  -10.3014 4.8606 -9.6552
v  -10.3014 9.7390 -9.6552
v  -11.3334 4.8606 -3.7007
v  -11.3334 9.7390 -3.7007
v  -3.0165 14.6175 -21.5363
v  -4.2384 14.6175 -15.8529
v  -7.1750 14.6175 -12.6185
v  -10.3014 14.6175 -9.6552
v  -11.3334 14.6175 -3.7007
v  -3.0165 19.4960 -21.5363
v  -4.2384 19.4960 -15.8529
v  -7.1750 19.4960 -12.6185
v  -10.3014 19.4960 -9.6552
v  -11.3334 19.4960 -3.7007
v  -3.0165 24.3744 -21.5363
v  -4.2384 24.3744 -15.8529
v  -7.1750 24.3744 -12.6185
v  -10.3014 24.3744 -9.6552
v  -11.3334 24.3744 -3.7007
v  1.4342 9.7390 -9.7414
v  1.4342 4.8606 -9.7414
v  -4.0986 4.8606 -7.9579
v  -4.0986 9.7390 -7.9579
v  -8.3681 4.8606 -8.8838
v  -8.3681 9.7390 -8.8838
v  -12.4976 4.8606 -10.1097
v  -12.4976 9.7390 -10.1097
v  -18.1703 4.8606 -8.0262
v  -18.1703 9.7390 -8.0262
v  1.4342 14.6175 -9.7414
v  -4.0986 14.6175 -7.9579
v  -8.3681 14.6175 -8.8838
v  -12.4976 14.6175 -10.1097
v  -18.1704 14.6175 -8.0262
v  1.4342 19.4960 -9.7414
v  -4.0986 19.4960 -7.9579
v  -8.3681 19.4960 -8.8838
v  -12.4976 19.4960 -10.1097
v  -18.1704 19.4960 -8.0262
v  1.4342 24.3744 -9.7414
v  -4.0986 24.3744 -7.9579
v  -8.3681 24.3744 -8.8838
v  -12.4976 24.3744 -10.1097
v  -18.1704 24.3744 -8.0262
v  -1.3494 9.7390 -3.6922
v  -1.3494 4.8606 -3.6922
v  -3.1329 4.8606 -9.2250
v  -3.1329 9.7390 -9.2250
v  -2.2070 4.8606 -13.4944
v  -2.2070 9.7390 -13.4944
v  -0.9811 4.8606 -17.6240
v  -0.9811 9.7390 -17.6240
v  -3.0646 4.8606 -23.2967
v  -3.0646 9.7390 -23.2967
v  -1.3494 14.6175 -3.6922
v  -3.1329 14.6175 -9.2250
v  -2.2070 14.6175 -13.4944
v  -0.9811 14.6175 -17.6240
v  -3.0646 14.6175 -23.2967
v  -1.3494 19.4960 -3.6922
v  -3.1329 19.4960 -9.2250
v  -2.2070 19.4960 -13.4944
v  -0.9811 19.4960 -17.6240
v  -3.0646 19.4960 -23.2967
v  -1.3494 24.3744 -3.6922
v  -3.1329 24.3744 -9.2250
v  -2.2070 24.3744 -13.4944
v  -0.9811 24.3744 -17.6240
v  -3.0646 24.3744 -23.2967
v  13.6585 9.7390 -3.2400
v  13.6585 4.8606 -3.2400
v  8.2737 4.8606 -5.4301
v  8.2737 9.7390 -5.4302
v  5.5983 4.8606 -8.8838
v  5.5983 9.7390 -8.8838
v  3.2229 4.8606 -12.4773
v  3.2229 9.7390 -12.4773
v  -2.4619 4.8606 -14.5276
v  -2.4619 9.7390 -14.5276
v  13.6585 14.6175 -3.2400
v  8.2737 14.6175 -5.4301
v  5.5983 14.6175 -8.8838
v  3.2229 14.6175 -12.4773
v  -2.4619 14.6175 -14.5276
v  13.6585 19.4960 -3.2400
v  8.2737 19.4960 -5.4302
v  5.5983 19.4960 -8.8838
v  3.2229 19.4960 -12.4773
v  -2.4619 19.4960 -14.5276
v  13.6585 24.3744 -3.2400
v  8.2737 24.3744 -5.4302
v  5.5983 24.3744 -8.8838
v  3.2229 24.3744 -12.4773
v  -2.4619 24.3744 -14.5276
v  6.5431 9.7390 -7.2779
v  6.5431 4.8606 -7.2779
v  3.8919 4.8606 -2.1044
v  3.8919 9.7390 -2.1044
v  0.2182 4.8606 0.2598
v  0.2182 9.7390 0.2598
v  -3.5687 4.8606 2.3129
v  -3.5687 9.7390 2.3129
v  -6.1066 4.8606 7.7974
v  -6.1066 9.7390 7.7974
v  6.5431 14.6175 -7.2779
v  3.8919 14.6175 -2.1044
v  0.2182 14.6175 0.2598
v  -3.5687 14.6175 2.3129
v  -6.1066 14.6175 7.7974
v  6.5431 19.4960 -7.2779
v  3.8919 19.4960 -2.1044
v  0.2182 19.4960 0.2598
v  -3.5687 19.4960 2.3129
v  -6.1066 19.4960 7.7974
v  6.5431 24.3744 -7.2779
v  3.8919 24.3744 -2.1044
v  0.2182 24.3744 0.2598
v  -3.5687 24.3744 2.3129
v  -6.1066 24.3744 7.7974
v  -7.2964 9.7390 -8.3687
v  -7.2964 4.8606 -8.3687
v  -4.5792 4.8606 -3.2296
v  -4.5792 9.7390 -3.2296
v  -4.7497 4.8606 1.1357
v  -4.7497 9.7390 1.1357
v  -5.2400 4.8606 5.4154
v  -5.2400 9.7390 5.4154
v  -2.2030 4.8606 10.6402
v  -2.2030 9.7390 10.6402
v  -7.2964 14.6175 -8.3687
v  -4.5792 14.6175 -3.2296
v  -4.7497 14.6175 1.1357
v  -5.2400 14.6175 5.4154
v  -2.2030 14.6175 10.6402
v  -7.2964 19.4960 -8.3687
v  -4.5792 19.4960 -3.2296
v  -4.7497 19.4960 1.1357
v  -5.2400 19.4960 5.4154
v  -2.2030 19.4960 10.6402
v  -7.2964 24.3744 -8.3687
v  -4.5792 24.3744 -3.2296
v  -4.7497 24.3744 1.1357
v  -5.2400 24.3744 5.4154
v  -2.2030 24.3744 10.6402
v  -2.0432 9.7390 3.6984
v  -2.0432 4.8606 3.6984
v  -6.6777 4.8606 0.1892
v  -6.6777 9.7390 0.1892
v  -8.3681 4.8606 -3.8392
v  -8.3681 9.7390 -3.8392
v  -9.7324 4.8606 -7.9251
v  -9.7324 9.7390 -7.9251
v  -14.6929 4.8606 -11.3769
v  -14.6929 9.7390 -11.3769
v  -2.0432 14.6175 3.6984
v  -6.6777 14.6175 0.1892
v  -8.3681 14.6175 -3.8392
v  -9.7324 14.6175 -7.9251
v  -14.6929 14.6175 -11.3769
v  -2.0432 19.4960 3.6984
v  -6.6777 19.4960 0.1892
v  -8.3681 19.4960 -3.8392
v  -9.7324 19.4960 -7.9251
v  -14.6929 19.4960 -11.3769
v  -2.0432 24.3744 3.6984
v  -6.6777 24.3744 0.1892
v  -8.3681 24.3744 -3.8392
v  -9.7324 24.3744 -7.9251
v  -14.6929 24.3744 -11.3769
v  -4.2040 9.7390 -4.6968
v  -4.2040 4.8606 -4.6968
v  1.5545 4.8606 -5.4925
v  1.5545 9.7390 -5.4925
v  5.5983 4.8606 -3.8392
v  5.5983 9.7390 -3.8392
v  9.4522 4.8606 -1.9148
v  9.4522 9.7390 -1.9148
v  15.4006 4.8606 -2.9816
v  15.4006 9.7390 -2.9816
v  -4.2040 14.6175 -4.6968
v  1.5545 14.6175 -5.4925
v  5.5983 14.6175 -3.8392
v  9.4522 14.6175 -1.9148
v  15.4006 14.6175 -2.9816
v  -4.2040 19.4960 -4.6968
v  1.5545 19.4960 -5.4925
v  5.5983 19.4960 -3.8392
v  9.4522 19.4960 -1.9148
v  15.4006 19.4960 -2.9816
v  -4.2040 24.3744 -4.6968
v  1.5545 24.3744 -5.4925
v  5.5983 24.3744 -3.8392
v  9.4522 24.3744 -1.9148
v  15.4006 24.3744 -2.9816
# 225 vertices

vn 0.5188 -0.0000 0.8549
vn 0.2588 -0.0000 0.9659
vn 0.2262 -0.0000 0.9741
vn 0.0454 -0.0000 0.9990
vn -0.9777 -0.0000 -0.2102
vn -0.8895 -0.0000 -0.4569
vn -0.7146 -0.0000 -0.6995
vn -0.8814 0.0000 -0.4723
vn -0.9853 -0.0000 -0.1708
vn -0.9777 0.0000 -0.2102
vn -0.7146 0.0000 -0.6995
vn -0.8814 -0.0000 -0.4723
vn -0.8895 0.0000 -0.4569
vn -0.3068 -0.0000 -0.9518
vn -0.0491 -0.0000 -0.9988
vn 0.2484 -0.0000 -0.9686
vn -0.0317 0.0000 -0.9995
vn -0.0317 -0.0000 -0.9995
vn -0.3448 0.0000 -0.9387
vn -0.3448 -0.0000 -0.9387
vn -0.3068 0.0000 -0.9518
vn -0.0491 0.0000 -0.9988
vn 0.2485 -0.0000 -0.9686
vn 0.9518 -0.0000 -0.3068
vn 0.9988 -0.0000 -0.0491
vn 0.9988 0.0000 -0.0491
vn 0.9686 -0.0000 0.2484
vn 0.9686 -0.0000 0.2485
vn 0.9995 -0.0000 -0.0317
vn 0.9995 0.0000 -0.0317
vn 0.9387 0.0000 -0.3448
vn 0.9387 -0.0000 -0.3448
vn 0.3768 -0.0000 -0.9263
vn 0.3768 0.0000 -0.9263
vn 0.6044 -0.0000 -0.7967
vn 0.8130 0.0000 -0.5823
vn 0.8130 -0.0000 -0.5823
vn 0.6182 -0.0000 -0.7860
vn 0.3393 -0.0000 -0.9407
vn 0.6182 0.0000 -0.7860
vn 0.3393 0.0000 -0.9407
vn 0.6182 -0.0000 -0.7861
vn -0.8899 -0.0000 -0.4561
vn -0.7410 -0.0000 -0.6715
vn -0.5093 -0.0000 -0.8606
vn -0.7291 0.0000 -0.6844
vn -0.7292 -0.0000 -0.6843
vn -0.9075 -0.0000 -0.4200
vn -0.9075 0.0000 -0.4200
vn -0.7292 0.0000 -0.6843
vn -0.8840 -0.0000 0.4674
vn -0.9751 -0.0000 0.2218
vn -0.9971 -0.0000 -0.0765
vn -0.9788 -0.0000 0.2048
vn -0.8646 -0.0000 0.5025
vn 0.6037 -0.0000 -0.7972
vn 0.7900 -0.0000 -0.6131
vn 0.9360 -0.0000 -0.3521
vn 0.8006 -0.0000 -0.5993
vn 0.5712 -0.0000 -0.8208
vn 0.6037 0.0000 -0.7972
vn 0.5712 0.0000 -0.8208
vn 0.1369 -0.0000 0.9906
vn -0.1251 -0.0000 0.9921
vn -0.4129 -0.0000 0.9108
vn -0.1423 -0.0000 0.9898
vn 0.1765 -0.0000 0.9843
# 67 vertex normals

vt 0.0027 0.2361 0.0000
vt 0.0027 0.1348 0.0000
vt 0.1465 0.1348 0.0000
vt 0.1465 0.2361 0.0000
vt 0.2903 0.1348 0.0000
vt 0.2903 0.2361 0.0000
vt 0.4342 0.1348 0.0000
vt 0.4342 0.2361 0.0000
vt 0.5780 0.1348 0.0000
vt 0.5780 0.2361 0.0000
vt 0.0027 0.3374 0.0000
vt 0.1465 0.3374 0.0000
vt 0.2903 0.3374 0.0000
vt 0.4342 0.3374 0.0000
vt 0.5780 0.3374 0.0000
vt 0.0027 0.4387 0.0000
vt 0.1465 0.4387 0.0000
vt 0.2903 0.4387 0.0000
vt 0.4342 0.4387 0.0000
vt 0.5780 0.4387 0.0000
vt 0.0027 0.5401 0.0000
vt 0.1465 0.5401 0.0000
vt 0.2903 0.5401 0.0000
vt 0.4342 0.5401 0.0000
vt 0.5780 0.5401 0.0000
vt 0.5991 0.2335 0.0000
vt 0.5991 0.1353 0.0000
vt 0.6981 0.1353 0.0000
vt 0.6981 0.2335 0.0000
vt 0.7972 0.1353 0.0000
vt 0.7972 0.2335 0.0000
vt 0.8963 0.1353 0.0000
vt 0.8963 0.2335 0.0000
vt 0.9953 0.1353 0.0000
vt 0.9953 0.2335 0.0000
vt 0.5991 0.3318 0.0000
vt 0.6981 0.3318 0.0000
vt 0.7972 0.3318 0.0000
vt 0.8963 0.3318 0.0000
vt 0.9953 0.3318 0.0000
vt 0.5991 0.4300 0.0000
vt 0.6981 0.4300 0.0000
vt 0.7972 0.4300 0.0000
vt 0.8963 0.4300 0.0000
vt 0.9953 0.4300 0.0000
vt 0.5991 0.5282 0.0000
vt 0.6981 0.5282 0.0000
vt 0.7972 0.5282 0.0000
vt 0.8963 0.5282 0.0000
vt 0.9953 0.5282 0.0000
# 50 texture coords

o Plane417
g Plane417
s 1
f 1/1/1 2/2/1 3/3/2 4/4/2 
f 4/4/2 3/3/2 5/5/3 6/6/3 
f 6/6/3 5/5/3 7/7/2 8/8/2 
f 8/8/2 7/7/2 9/9/4 10/10/4 
f 11/11/1 1/1/1 4/4/2 12/12/2 
f 12/12/2 4/4/2 6/6/3 13/13/3 
f 13/13/3 6/6/3 8/8/2 14/14/2 
f 14/14/2 8/8/2 10/10/4 15/15/4 
f 16/16/1 11/11/1 12/12/2 17/17/2 
f 17/17/2 12/12/2 13/13/3 18/18/3 
f 18/18/3 13/13/3 14/14/2 19/19/2 
f 19/19/2 14/14/2 15/15/4 20/20/4 
f 21/21/1 16/16/1 17/17/2 22/22/2 
f 22/22/2 17/17/2 18/18/3 23/23/3 
f 23/23/3 18/18/3 19/19/2 24/24/2 
f 24/24/2 19/19/2 20/20/4 25/25/4 
f 26/26/5 27/27/5 28/28/6 29/29/6 
f 29/29/6 28/28/6 30/30/7 31/31/7 
f 31/31/7 30/30/7 32/32/8 33/33/8 
f 33/33/8 32/32/8 34/34/9 35/35/9 
f 36/36/10 26/26/5 29/29/6 37/37/6 
f 37/37/6 29/29/6 31/31/7 38/38/11 
f 38/38/11 31/31/7 33/33/8 39/39/12 
f 39/39/12 33/33/8 35/35/9 40/40/9 
f 41/41/5 36/36/10 37/37/6 42/42/6 
f 42/42/6 37/37/6 38/38/11 43/43/7 
f 43/43/7 38/38/11 39/39/12 44/44/12 
f 44/44/12 39/39/12 40/40/9 45/45/9 
f 46/46/5 41/41/5 42/42/6 47/47/13 
f 47/47/13 42/42/6 43/43/7 48/48/7 
f 48/48/7 43/43/7 44/44/12 49/49/12 
f 49/49/12 44/44/12 45/45/9 50/50/9 
f 51/26/14 52/27/14 53/28/15 54/29/15 
f 54/29/15 53/28/15 55/30/16 56/31/16 
f 56/31/16 55/30/16 57/32/17 58/33/18 
f 58/33/18 57/32/17 59/34/19 60/35/20 
f 61/36/14 51/26/14 54/29/15 62/37/15 
f 62/37/15 54/29/15 56/31/16 63/38/16 
f 63/38/16 56/31/16 58/33/18 64/39/18 
f 64/39/18 58/33/18 60/35/20 65/40/20 
f 66/41/14 61/36/14 62/37/15 67/42/15 
f 67/42/15 62/37/15 63/38/16 68/43/16 
f 68/43/16 63/38/16 64/39/18 69/44/17 
f 69/44/17 64/39/18 65/40/20 70/45/20 
f 71/46/21 66/41/14 67/42/15 72/47/22 
f 72/47/22 67/42/15 68/43/16 73/48/23 
f 73/48/23 68/43/16 69/44/17 74/49/18 
f 74/49/18 69/44/17 70/45/20 75/50/20 
f 76/26/24 77/27/24 78/28/25 79/29/26 
f 79/29/26 78/28/25 80/30/27 81/31/28 
f 81/31/28 80/30/27 82/32/29 83/33/30 
f 83/33/30 82/32/29 84/34/31 85/35/31 
f 86/36/24 76/26/24 79/29/26 87/37/25 
f 87/37/25 79/29/26 81/31/28 88/38/27 
f 88/38/27 81/31/28 83/33/30 89/39/29 
f 89/39/29 83/33/30 85/35/31 90/40/32 
f 91/41/24 86/36/24 87/37/25 92/42/25 
f 92/42/25 87/37/25 88/38/27 93/43/27 
f 93/43/27 88/38/27 89/39/29 94/44/29 
f 94/44/29 89/39/29 90/40/32 95/45/32 
f 96/46/24 91/41/24 92/42/25 97/47/25 
f 97/47/25 92/42/25 93/43/27 98/48/27 
f 98/48/27 93/43/27 94/44/29 99/49/29 
f 99/49/29 94/44/29 95/45/32 100/50/32 
f 101/26/33 102/27/34 103/28/35 104/29/35 
f 104/29/35 103/28/35 105/30/36 106/31/37 
f 106/31/37 105/30/36 107/32/38 108/33/38 
f 108/33/38 107/32/38 109/34/39 110/35/39 
f 111/36/33 101/26/33 104/29/35 112/37/35 
f 112/37/35 104/29/35 106/31/37 113/38/37 
f 113/38/37 106/31/37 108/33/38 114/39/40 
f 114/39/40 108/33/38 110/35/39 115/40/39 
f 116/41/33 111/36/33 112/37/35 117/42/35 
f 117/42/35 112/37/35 113/38/37 118/43/37 
f 118/43/37 113/38/37 114/39/40 119/44/38 
f 119/44/38 114/39/40 115/40/39 120/45/41 
f 121/46/34 116/41/33 117/42/35 122/47/35 
f 122/47/35 117/42/35 118/43/37 123/48/36 
f 123/48/36 118/43/37 119/44/38 124/49/42 
f 124/49/42 119/44/38 120/45/41 125/50/39 
f 126/26/43 127/27/43 128/28/44 129/29/44 
f 129/29/44 128/28/44 130/30/45 131/31/45 
f 131/31/45 130/30/45 132/32/46 133/33/47 
f 133/33/47 132/32/46 134/34/48 135/35/48 
f 136/36/43 126/26/43 129/29/44 137/37/44 
f 137/37/44 129/29/44 131/31/45 138/38/45 
f 138/38/45 131/31/45 133/33/47 139/39/47 
f 139/39/47 133/33/47 135/35/48 140/40/48 
f 141/41/43 136/36/43 137/37/44 142/42/44 
f 142/42/44 137/37/44 138/38/45 143/43/45 
f 143/43/45 138/38/45 139/39/47 144/44/47 
f 144/44/47 139/39/47 140/40/48 145/45/49 
f 146/46/43 141/41/43 142/42/44 147/47/44 
f 147/47/44 142/42/44 143/43/45 148/48/45 
f 148/48/45 143/43/45 144/44/47 149/49/50 
f 149/49/50 144/44/47 145/45/49 150/50/49 
f 151/26/51 152/27/51 153/28/52 154/29/52 
f 154/29/52 153/28/52 155/30/53 156/31/53 
f 156/31/53 155/30/53 157/32/54 158/33/54 
f 158/33/54 157/32/54 159/34/55 160/35/55 
f 161/36/51 151/26/51 154/29/52 162/37/52 
f 162/37/52 154/29/52 156/31/53 163/38/53 
f 163/38/53 156/31/53 158/33/54 164/39/54 
f 164/39/54 158/33/54 160/35/55 165/40/55 
f 166/41/51 161/36/51 162/37/52 167/42/52 
f 167/42/52 162/37/52 163/38/53 168/43/53 
f 168/43/53 163/38/53 164/39/54 169/44/54 
f 169/44/54 164/39/54 165/40/55 170/45/55 
f 171/46/51 166/41/51 167/42/52 172/47/52 
f 172/47/52 167/42/52 168/43/53 173/48/53 
f 173/48/53 168/43/53 169/44/54 174/49/54 
f 174/49/54 169/44/54 170/45/55 175/50/55 
f 176/26/56 177/27/56 178/28/57 179/29/57 
f 179/29/57 178/28/57 180/30/58 181/31/58 
f 181/31/58 180/30/58 182/32/59 183/33/59 
f 183/33/59 182/32/59 184/34/60 185/35/60 
f 186/36/61 176/26/56 179/29/57 187/37/57 
f 187/37/57 179/29/57 181/31/58 188/38/58 
f 188/38/58 181/31/58 183/33/59 189/39/59 
f 189/39/59 183/33/59 185/35/60 190/40/62 
f 191/41/56 186/36/61 187/37/57 192/42/57 
f 192/42/57 187/37/57 188/38/58 193/43/58 
f 193/43/58 188/38/58 189/39/59 194/44/59 
f 194/44/59 189/39/59 190/40/62 195/45/60 
f 196/46/56 191/41/56 192/42/57 197/47/57 
f 197/47/57 192/42/57 193/43/58 198/48/58 
f 198/48/58 193/43/58 194/44/59 199/49/59 
f 199/49/59 194/44/59 195/45/60 200/50/60 
f 201/26/63 202/27/63 203/28/64 204/29/64 
f 204/29/64 203/28/64 205/30/65 206/31/65 
f 206/31/65 205/30/65 207/32/66 208/33/66 
f 208/33/66 207/32/66 209/34/67 210/35/67 
f 211/36/63 201/26/63 204/29/64 212/37/64 
f 212/37/64 204/29/64 206/31/65 213/38/65 
f 213/38/65 206/31/65 208/33/66 214/39/66 
f 214/39/66 208/33/66 210/35/67 215/40/67 
f 216/41/63 211/36/63 212/37/64 217/42/64 
f 217/42/64 212/37/64 213/38/65 218/43/65 
f 218/43/65 213/38/65 214/39/66 219/44/66 
f 219/44/66 214/39/66 215/40/67 220/45/67 
f 221/46/63 216/41/63 217/42/64 222/47/64 
f 222/47/64 217/42/64 218/43/65 223/48/65 
f 223/48/65 218/43/65 219/44/66 224/49/66 
f 224/49/66 219/44/66 220/45/67 225/50/67 
# 144 polygons

