# 3ds Max Wavefront OBJ Exporter v0.97b - (c)2007 guruware
# File Created: 26.10.2019 21:51:00

mtllib Wall.mtl

#
# object Box2175
#

v  -70.1733 -74.2840 4.8711
v  -70.1733 -74.2840 2.6330
v  70.1734 -74.2840 2.6330
v  70.1734 -74.2840 4.8711
v  -70.1733 74.2840 4.8711
v  70.1734 74.2840 4.8711
v  70.1734 74.2840 2.6330
v  -70.1733 74.2840 2.6330
v  70.1734 -45.9059 4.8711
v  -70.1733 -45.9059 4.8711
v  70.1734 -45.9059 2.6330
v  70.1734 -74.2840 -4.8710
v  -70.1733 -74.2840 -4.8710
v  -70.1733 -47.0248 -4.8710
v  70.1734 -47.0248 -4.8710
v  -70.1733 -45.9059 2.6330
v  70.1734 56.8626 4.8711
v  70.1734 63.1674 4.8711
v  -70.1733 63.1674 4.8711
v  -70.1733 56.8626 4.8711
v  70.1734 56.8626 2.6330
v  70.1734 63.1674 2.6330
v  -70.1733 57.3872 -1.0676
v  -70.1733 62.6428 -1.0676
v  70.1734 62.6428 -1.0676
v  70.1734 57.3872 -1.0676
v  -70.1733 63.1674 2.6330
v  -70.1733 56.8626 2.6330
v  -70.1733 -45.9059 -3.7522
v  70.1734 -45.9059 -3.7522
v  70.1734 56.8626 -0.5430
v  70.1734 63.1674 -0.5430
v  -70.1733 56.8626 -0.5430
v  -70.1733 63.1674 -0.5430
# 34 vertices

vn -0.5773 -0.5773 0.5774
vn -0.7071 -0.7071 0.0000
vn 0.7071 -0.7071 0.0000
vn 0.5773 -0.5773 0.5774
vn -0.5774 0.5774 0.5774
vn 0.5774 0.5774 0.5774
vn 0.5774 0.5774 -0.5774
vn -0.5774 0.5774 -0.5774
vn 0.7071 0.0000 0.7071
vn -0.7071 0.0000 0.7071
vn 0.9045 0.3015 -0.3015
vn 0.5774 -0.5774 -0.5774
vn -0.5774 -0.5774 -0.5774
vn -0.6303 0.2971 -0.7173
vn 0.6303 0.2971 -0.7173
vn -0.9045 0.3015 -0.3015
vn 0.9045 -0.3015 -0.3015
vn -0.6303 -0.2971 -0.7173
vn 0.6303 -0.2971 -0.7173
vn -0.9045 -0.3015 -0.3015
vn -0.6303 0.7173 -0.2971
vn 0.6303 0.7173 -0.2971
vn 0.6303 -0.7173 -0.2971
vn -0.6303 -0.7173 -0.2971
# 24 vertex normals

vt 0.8067 -0.0012 0.0000
vt 0.8265 -0.0012 0.0000
vt 0.8265 0.9948 0.0000
vt 0.8067 0.9948 0.0000
vt 0.7397 0.0035 0.0000
vt 0.7397 0.9995 0.0000
vt 0.7199 0.9995 0.0000
vt 0.7199 0.0035 0.0000
vt 0.6569 0.0020 0.0000
vt 0.6569 0.4992 0.0000
vt 0.5318 0.4992 0.0000
vt 0.5318 0.0020 0.0000
vt 0.6569 0.5008 0.0000
vt 0.6569 0.9980 0.0000
vt 0.5367 0.9980 0.0000
vt 0.5367 0.5008 0.0000
vt 0.0788 0.4992 0.0000
vt 0.0510 0.4992 0.0000
vt 0.0510 0.0020 0.0000
vt 0.0788 0.0020 0.0000
vt 0.0765 0.9980 0.0000
vt 0.0533 0.9980 0.0000
vt 0.0533 0.5008 0.0000
vt 0.0765 0.5008 0.0000
vt 0.8927 -0.0012 0.0000
vt 0.8927 0.9948 0.0000
vt 0.5367 0.0020 0.0000
vt 0.5367 0.4992 0.0000
vt 0.0020 0.4992 0.0000
vt 0.0020 0.0020 0.0000
vt 0.0510 0.9980 0.0000
vt 0.0020 0.9980 0.0000
vt 0.0020 0.5008 0.0000
vt 0.0510 0.5008 0.0000
vt 0.0788 0.5008 0.0000
vt 0.5318 0.5008 0.0000
vt 0.5318 0.9980 0.0000
vt 0.0788 0.9980 0.0000
vt 0.0765 0.4992 0.0000
vt 0.0533 0.4992 0.0000
vt 0.0533 0.0020 0.0000
vt 0.0765 0.0020 0.0000
# 42 texture coords

o Box2175
g Box2175
usemtl 20___Default
s 1
f 1/1/1 2/2/2 3/3/3 4/4/4 
f 5/5/5 6/6/6 7/7/7 8/8/8 
s 2
f 1/9/1 4/10/4 9/11/9 10/12/10 
s 4
f 4/10/4 3/10/3 11/11/11 9/11/9 
s 2
f 12/13/12 13/14/13 14/15/14 15/16/15 
s 4
f 2/9/2 1/9/1 10/12/10 16/12/16 
s 2
f 17/17/9 18/18/9 19/19/10 20/20/10 
s 4
f 21/17/17 22/18/11 18/18/9 17/17/9 
s 1
f 23/21/18 24/22/14 25/23/15 26/24/19 
s 4
f 20/20/10 19/19/10 27/19/16 28/20/20 
s 1
f 3/3/3 2/2/2 13/25/13 12/26/12 
s 4
f 2/9/2 16/12/16 29/12/21 14/27/14 13/9/13 
s 1
f 16/12/16 11/11/11 30/11/22 29/12/21 
s 4
f 11/11/11 3/10/3 12/10/12 15/28/15 30/11/22 
s 2
f 18/18/9 6/29/6 5/30/5 19/19/10 
f 20/20/10 10/12/10 9/11/9 17/17/9 
s 4
f 22/18/11 7/29/7 6/29/6 18/18/9 
f 17/17/9 9/11/9 11/11/11 21/17/17 
s 2
f 27/31/16 8/32/8 7/33/7 22/34/11 
f 21/35/17 11/36/11 16/37/16 28/38/20 
s 4
f 19/19/10 5/30/5 8/30/8 27/19/16 
f 28/20/20 16/12/16 10/12/10 20/20/10 
f 22/18/11 21/17/17 31/17/23 26/39/19 25/40/15 32/18/22 
s 1
f 21/17/17 28/20/20 33/20/24 31/17/23 
s 4
f 28/20/20 27/19/16 34/19/21 24/41/14 23/42/18 33/20/24 
s 1
f 27/19/16 22/18/11 32/18/22 34/19/21 
s 8
f 14/15/14 29/37/21 30/36/22 15/16/15 
s 2
f 26/24/19 31/35/23 33/38/24 23/21/18 
f 24/22/14 34/31/21 32/34/22 25/23/15 
# 29 polygons

