# 3ds Max Wavefront OBJ Exporter v0.97b - (c)2007 guruware
# File Created: 27.01.2020 17:05:39

#
# object Cylinder207
#

v  -1927.5804 298.6606 -1248.7937
v  -1977.3081 468.0175 -1248.7937
v  -1984.3191 463.5118 -1228.2045
v  -1935.9144 298.6606 -1228.2045
v  -2110.7029 583.6049 -1248.7937
v  -2114.1650 576.0239 -1228.2045
v  -2285.4131 608.7242 -1248.7937
v  -2284.2271 600.4751 -1228.2045
v  -2445.9690 535.4008 -1248.7937
v  -2440.5115 529.1024 -1228.2045
v  -2541.3958 386.9139 -1248.7937
v  -2533.3994 384.5659 -1228.2045
v  -2541.3958 210.4073 -1248.7937
v  -2533.3994 212.7552 -1228.2045
v  -2445.9690 61.9204 -1248.7937
v  -2440.5112 68.2189 -1228.2045
v  -2285.4128 -11.4030 -1248.7937
v  -2284.2268 -3.1538 -1228.2045
v  -2110.7029 13.7165 -1248.7937
v  -2114.1650 21.2974 -1228.2045
v  -1977.3081 129.3037 -1248.7937
v  -1984.3191 133.8094 -1228.2045
v  -1977.7070 298.6606 -1074.8706
v  -2019.4774 440.9170 -1074.8706
v  -2049.3545 421.7161 -891.1368
v  -2013.2222 298.6607 -891.1368
v  -2131.5264 538.0080 -1074.8706
v  -2146.2798 505.7023 -891.1368
v  -2278.2793 559.1078 -1074.8706
v  -2273.2249 523.9543 -891.1368
v  -2413.1431 497.5176 -1074.8706
v  -2389.8857 470.6771 -891.1368
v  -2493.2996 372.7916 -1074.8706
v  -2459.2231 362.7859 -891.1368
v  -2493.2996 224.5296 -1074.8706
v  -2459.2231 234.5354 -891.1368
v  -2413.1431 99.8037 -1074.8706
v  -2389.8855 126.6442 -891.1368
v  -2278.2791 38.2135 -1074.8706
v  -2273.2249 73.3671 -891.1368
v  -2131.5264 59.3134 -1074.8706
v  -2146.2798 91.6190 -891.1368
v  -2019.4774 156.4043 -1074.8706
v  -2049.3545 175.6052 -891.1368
v  -2069.2727 408.9155 -765.8199
v  -2036.8988 298.6607 -765.8199
v  -2156.1155 484.1653 -765.8199
v  -2269.8552 500.5186 -765.8199
v  -2374.3806 452.7834 -765.8199
v  -2436.5054 356.1154 -765.8199
v  -2436.5054 241.2059 -765.8199
v  -2374.3806 144.5378 -765.8199
v  -2269.8552 96.8027 -765.8199
v  -2156.1155 113.1561 -765.8199
v  -2069.2727 188.4058 -765.8199
v  -2069.2727 408.9155 -681.4366
v  -2036.8988 298.6607 -681.4366
v  -2156.1155 484.1653 -681.4366
v  -2269.8552 500.5186 -681.4366
v  -2374.3806 452.7834 -681.4366
v  -2436.5054 356.1154 -681.4366
v  -2436.5054 241.2059 -681.4366
v  -2374.3806 144.5379 -681.4366
v  -2269.8552 96.8027 -681.4366
v  -2156.1155 113.1561 -681.4366
v  -2069.2727 188.4058 -681.4366
v  -2050.7520 298.6606 -1248.7937
v  -2080.9265 401.4260 -1248.7938
v  -2080.9265 195.8953 -1248.7937
v  -2161.8701 125.7572 -1248.7937
v  -2267.8838 110.5147 -1248.7937
v  -2365.3088 155.0072 -1248.7937
v  -2423.2136 245.1087 -1248.7937
v  -2423.2136 352.2125 -1248.7938
v  -2365.3088 442.3140 -1248.7938
v  -2267.8838 486.8065 -1248.7938
v  -2161.8701 471.5641 -1248.7938
v  -2050.7520 298.6606 -1285.8682
v  -2080.9265 401.4260 -1285.8682
v  -2080.9265 195.8953 -1285.8682
v  -2161.8701 125.7572 -1285.8682
v  -2267.8838 110.5147 -1285.8682
v  -2365.3088 155.0072 -1285.8682
v  -2423.2136 245.1087 -1285.8682
v  -2423.2136 352.2125 -1285.8682
v  -2365.3088 442.3140 -1285.8682
v  -2267.8838 486.8065 -1285.8682
v  -2161.8701 471.5641 -1285.8682
v  -2069.2727 408.9155 -577.9008
v  -2036.8988 298.6607 -577.9008
v  -2156.1155 484.1653 -577.9008
v  -2269.8552 500.5186 -577.9008
v  -2374.3806 452.7834 -577.9008
v  -2436.5054 356.1154 -577.9008
v  -2436.5054 241.2059 -577.9008
v  -2374.3806 144.5379 -577.9008
v  -2269.8552 96.8027 -577.9008
v  -2156.1155 113.1561 -577.9008
v  -2069.2727 188.4058 -577.9008
v  -2011.4237 446.0928 -577.9008
v  -1968.1338 298.6607 -577.9008
v  -2127.5493 546.7162 -577.9008
v  -2279.6416 568.5837 -577.9008
v  -2419.4124 504.7526 -577.9008
v  -2502.4851 375.4887 -577.9008
v  -2502.4851 221.8325 -577.9008
v  -2419.4121 92.5687 -577.9008
v  -2279.6416 28.7376 -577.9008
v  -2127.5493 50.6052 -577.9008
v  -2011.4237 151.2286 -577.9008
v  -2011.4237 446.0928 -454.5169
v  -1968.1338 298.6607 -454.5169
v  -2127.5493 546.7162 -454.5169
v  -2279.6416 568.5837 -454.5169
v  -2419.4124 504.7526 -454.5169
v  -2502.4851 375.4887 -454.5169
v  -2502.4851 221.8325 -454.5169
v  -2419.4121 92.5687 -454.5169
v  -2279.6416 28.7376 -454.5169
v  -2127.5493 50.6052 -454.5169
v  -2011.4237 151.2286 -454.5169
v  -2240.8325 298.6607 -450.9136
v  -2074.8245 298.6606 -3258.6345
v  -2114.9390 298.6606 -3304.5403
v  -2134.9241 366.2640 -3304.5403
v  -2101.1777 388.4113 -3258.6345
v  -2101.1777 208.9098 -3258.6345
v  -2134.9241 231.0571 -3304.5403
v  -2171.8704 147.6543 -3258.6345
v  -2188.5344 184.9173 -3304.5403
v  -2264.4580 134.3422 -3258.6345
v  -2258.7490 174.8901 -3304.5403
v  -2349.5447 173.2000 -3258.6345
v  -2323.2751 204.1592 -3304.5403
v  -2400.1162 251.8906 -3258.6345
v  -2361.6265 263.4318 -3304.5403
v  -2400.1162 345.4304 -3258.6345
v  -2361.6265 333.8893 -3304.5403
v  -2349.5447 424.1211 -3258.6345
v  -2323.2754 393.1619 -3304.5403
v  -2264.4580 462.9789 -3258.6345
v  -2258.7490 422.4310 -3304.5403
v  -2171.8704 449.6669 -3258.6345
v  -2188.5344 412.4038 -3304.5403
v  -2189.4124 298.6606 -3337.9063
v  -2240.8325 298.6606 -3345.6792
v  -2197.5752 326.4603 -3337.9063
v  -2080.9265 401.4259 -3210.0264
v  -2050.7520 298.6606 -3210.0264
v  -2197.5752 270.8608 -3337.9063
v  -2080.9265 195.8952 -3210.0264
v  -2219.4719 251.8872 -3337.9063
v  -2161.8701 125.7571 -3210.0264
v  -2248.1504 247.7639 -3337.9063
v  -2267.8838 110.5146 -3210.0264
v  -2274.5054 259.7999 -3337.9063
v  -2365.3088 155.0071 -3210.0264
v  -2290.1697 284.1738 -3337.9063
v  -2423.2136 245.1086 -3210.0264
v  -2290.1697 313.1472 -3337.9063
v  -2423.2136 352.2124 -3210.0264
v  -2274.5054 337.5212 -3337.9063
v  -2365.3088 442.3139 -3210.0264
v  -2248.1504 349.5572 -3337.9063
v  -2267.8838 486.8065 -3210.0264
v  -2219.4719 345.4339 -3337.9063
v  -2161.8701 471.5640 -3210.0264
# 167 vertices

vn 0.8665 0.0000 -0.4992
vn 0.7289 0.4685 -0.4992
vn 0.7962 0.5117 0.3229
vn 0.9464 0.0000 0.3229
vn 0.3599 0.7882 -0.4992
vn 0.3932 0.8609 0.3229
vn -0.1233 0.8577 -0.4992
vn -0.1347 0.9368 0.3229
vn -0.5674 0.6548 -0.4992
vn -0.6198 0.7153 0.3229
vn -0.8314 0.2441 -0.4992
vn -0.9081 0.2666 0.3229
vn -0.8314 -0.2441 -0.4992
vn -0.9081 -0.2666 0.3229
vn -0.5674 -0.6548 -0.4992
vn -0.6198 -0.7153 0.3229
vn -0.1233 -0.8577 -0.4992
vn -0.1347 -0.9368 0.3229
vn 0.3599 -0.7882 -0.4992
vn 0.3932 -0.8609 0.3229
vn 0.7289 -0.4685 -0.4992
vn 0.7962 -0.5117 0.3229
vn 0.9737 0.0000 0.2280
vn 0.8191 0.5264 0.2280
vn 0.8263 0.5310 0.1878
vn 0.9822 0.0000 0.1878
vn 0.4045 0.8857 0.2280
vn 0.4080 0.8934 0.1878
vn -0.1386 0.9637 0.2280
vn -0.1398 0.9722 0.1878
vn -0.6376 0.7358 0.2280
vn -0.6432 0.7423 0.1878
vn -0.9342 0.2743 0.2280
vn -0.9424 0.2767 0.1878
vn -0.9342 -0.2743 0.2280
vn -0.9424 -0.2767 0.1878
vn -0.6376 -0.7358 0.2280
vn -0.6432 -0.7423 0.1878
vn -0.1386 -0.9637 0.2280
vn -0.1398 -0.9722 0.1878
vn 0.4045 -0.8857 0.2280
vn 0.4080 -0.8934 0.1878
vn 0.8191 -0.5264 0.2280
vn 0.8263 -0.5310 0.1878
vn 0.8375 0.5382 0.0948
vn 0.9955 -0.0000 0.0948
vn 0.4135 0.9055 0.0948
vn -0.1417 0.9854 0.0948
vn -0.6519 0.7523 0.0948
vn -0.9552 0.2805 0.0948
vn -0.9552 -0.2805 0.0948
vn -0.6519 -0.7523 0.0948
vn -0.1417 -0.9854 0.0948
vn 0.4135 -0.9055 0.0948
vn 0.8375 -0.5382 0.0948
vn 0.8413 0.5406 -0.0000
vn 1.0000 0.0000 -0.0000
vn 0.4154 0.9096 -0.0000
vn -0.1423 0.9898 -0.0000
vn -0.6549 0.7557 -0.0000
vn -0.9595 0.2817 -0.0000
vn -0.9595 -0.2817 0.0000
vn -0.6549 -0.7557 0.0000
vn -0.1423 -0.9898 0.0000
vn 0.4154 -0.9096 0.0000
vn 0.8413 -0.5406 -0.0000
vn 0.6303 -0.0000 -0.7763
vn 0.5302 0.3408 -0.7763
vn 0.5302 -0.3408 -0.7764
vn 0.2618 -0.5733 -0.7763
vn -0.0897 -0.6239 -0.7763
vn -0.4128 -0.4764 -0.7764
vn -0.6048 -0.1776 -0.7763
vn -0.6048 0.1776 -0.7763
vn -0.4128 0.4764 -0.7763
vn -0.0897 0.6239 -0.7763
vn 0.2618 0.5733 -0.7763
vn 0.8413 0.5406 0.0000
vn 0.8412 -0.5407 0.0000
vn -0.6549 -0.7557 -0.0000
vn -0.9595 0.2817 0.0000
vn -0.6549 0.7557 0.0000
vn 0.5302 0.3408 -0.7764
vn 0.6303 0.0000 -0.7764
vn 0.2618 0.5733 -0.7764
vn -0.0897 0.6238 -0.7764
vn -0.4128 0.4764 -0.7764
vn -0.6048 0.1776 -0.7764
vn -0.4127 -0.4763 -0.7764
vn -0.0897 -0.6238 -0.7764
vn 0.6401 0.4114 -0.6489
vn 0.7609 -0.0000 -0.6489
vn 0.3161 0.6922 -0.6489
vn -0.1083 0.7532 -0.6489
vn -0.4983 0.5751 -0.6489
vn -0.7301 0.2144 -0.6489
vn -0.7301 -0.2144 -0.6489
vn -0.4983 -0.5750 -0.6489
vn -0.1083 -0.7531 -0.6489
vn 0.3161 -0.6922 -0.6489
vn 0.6401 -0.4114 -0.6489
vn 0.6432 0.4133 0.6446
vn 0.7645 0.0000 0.6446
vn 0.3176 0.6954 0.6446
vn -0.1088 0.7567 0.6446
vn -0.5007 0.5778 0.6446
vn -0.7335 0.2154 0.6446
vn -0.7335 -0.2154 0.6446
vn -0.5007 -0.5778 0.6446
vn -0.1088 -0.7567 0.6446
vn 0.3176 -0.6954 0.6446
vn 0.6432 -0.4133 0.6446
vn 0.0000 0.0000 1.0000
vn 0.8384 -0.0000 -0.5451
vn 0.6188 0.0000 -0.7856
vn 0.5192 0.3348 -0.7864
vn 0.7045 0.4531 -0.5462
vn 0.7045 -0.4531 -0.5462
vn 0.5192 -0.3348 -0.7864
vn 0.3472 -0.7608 -0.5483
vn 0.2551 -0.5606 -0.7878
vn -0.1189 -0.8274 -0.5489
vn -0.0873 -0.6092 -0.7882
vn -0.5478 -0.6328 -0.5473
vn -0.4031 -0.4669 -0.7871
vn -0.8042 -0.2363 -0.5454
vn -0.5933 -0.1748 -0.7858
vn -0.8042 0.2363 -0.5454
vn -0.5933 0.1748 -0.7858
vn -0.5478 0.6328 -0.5473
vn -0.4031 0.4669 -0.7871
vn -0.1189 0.8274 -0.5489
vn -0.0873 0.6092 -0.7882
vn 0.3472 0.7608 -0.5483
vn 0.2551 0.5606 -0.7878
vn 0.3040 0.0000 -0.9527
vn -0.0000 -0.0000 -1.0000
vn 0.2562 0.1650 -0.9524
vn 0.8208 0.5275 -0.2193
vn 0.9757 -0.0000 -0.2193
vn 0.2562 -0.1650 -0.9524
vn 0.8208 -0.5275 -0.2193
vn 0.1269 -0.2784 -0.9520
vn 0.4053 -0.8875 -0.2193
vn -0.0435 -0.3033 -0.9519
vn -0.1388 -0.9657 -0.2193
vn -0.1998 -0.2310 -0.9522
vn -0.6389 -0.7374 -0.2193
vn -0.2919 -0.0859 -0.9526
vn -0.9361 -0.2749 -0.2193
vn -0.2919 0.0859 -0.9526
vn -0.9361 0.2749 -0.2193
vn -0.1998 0.2310 -0.9522
vn -0.6389 0.7374 -0.2193
vn -0.0435 0.3033 -0.9519
vn -0.1389 0.9657 -0.2193
vn 0.1269 0.2784 -0.9520
vn 0.4053 0.8875 -0.2193
# 158 vertex normals

vt 0.3406 0.9577 0.0000
vt 0.2793 0.9577 0.0000
vt 0.2801 0.9501 0.0000
vt 0.3398 0.9501 0.0000
vt 0.2194 0.9449 0.0000
vt 0.2218 0.9375 0.0000
vt 0.1635 0.9197 0.0000
vt 0.1674 0.9155 0.0000
vt 0.1141 0.8833 0.0000
vt 0.1193 0.8801 0.0000
vt 0.0735 0.8373 0.0000
vt 0.0798 0.8328 0.0000
vt 0.0435 0.7839 0.0000
vt 0.0506 0.7808 0.0000
vt 0.0254 0.7253 0.0000
vt 0.0330 0.7238 0.0000
vt 0.0200 0.6642 0.0000
vt 0.0277 0.6644 0.0000
vt 0.0276 0.6034 0.0000
vt 0.0351 0.6051 0.0000
vt 0.0477 0.5455 0.0000
vt 0.0547 0.5488 0.0000
vt 0.0796 0.4931 0.0000
vt 0.0858 0.4978 0.0000
vt 0.3357 0.8952 0.0000
vt 0.2842 0.8952 0.0000
vt 0.2877 0.8303 0.0000
vt 0.3322 0.8303 0.0000
vt 0.2877 0.8955 0.0000
vt 0.2373 0.8847 0.0000
vt 0.2543 0.8220 0.0000
vt 0.2979 0.8313 0.0000
vt 0.2406 0.8858 0.0000
vt 0.1937 0.8646 0.0000
vt 0.2235 0.8069 0.0000
vt 0.2641 0.8252 0.0000
vt 0.1967 0.8689 0.0000
vt 0.1552 0.8383 0.0000
vt 0.1965 0.7856 0.0000
vt 0.2324 0.8121 0.0000
vt 0.1578 0.8382 0.0000
vt 0.1237 0.7996 0.0000
vt 0.1746 0.7592 0.0000
vt 0.2041 0.7926 0.0000
vt 0.1257 0.8024 0.0000
vt 0.1005 0.7575 0.0000
vt 0.1588 0.7287 0.0000
vt 0.1806 0.7676 0.0000
vt 0.1018 0.7607 0.0000
vt 0.0866 0.7115 0.0000
vt 0.1497 0.6956 0.0000
vt 0.1628 0.7382 0.0000
vt 0.0873 0.7149 0.0000
vt 0.0828 0.6636 0.0000
vt 0.1477 0.6614 0.0000
vt 0.1516 0.7057 0.0000
vt 0.0827 0.6671 0.0000
vt 0.0891 0.6160 0.0000
vt 0.1530 0.6274 0.0000
vt 0.1475 0.6716 0.0000
vt 0.0883 0.6194 0.0000
vt 0.1052 0.5707 0.0000
vt 0.1654 0.5954 0.0000
vt 0.1507 0.6374 0.0000
vt 0.1037 0.5739 0.0000
vt 0.1305 0.5299 0.0000
vt 0.1842 0.5666 0.0000
vt 0.1610 0.6047 0.0000
vt 0.2900 0.7860 0.0000
vt 0.3299 0.7860 0.0000
vt 0.2659 0.7792 0.0000
vt 0.3049 0.7876 0.0000
vt 0.2438 0.7675 0.0000
vt 0.2802 0.7839 0.0000
vt 0.2247 0.7514 0.0000
vt 0.2568 0.7751 0.0000
vt 0.2093 0.7316 0.0000
vt 0.2357 0.7616 0.0000
vt 0.1985 0.7091 0.0000
vt 0.2180 0.7439 0.0000
vt 0.1926 0.6848 0.0000
vt 0.2044 0.7229 0.0000
vt 0.1920 0.6598 0.0000
vt 0.1955 0.6995 0.0000
vt 0.1967 0.6352 0.0000
vt 0.1917 0.6748 0.0000
vt 0.2064 0.6121 0.0000
vt 0.1932 0.6498 0.0000
vt 0.2207 0.5916 0.0000
vt 0.2000 0.6257 0.0000
vt 0.2900 0.7567 0.0000
vt 0.3299 0.7567 0.0000
vt 0.2721 0.7506 0.0000
vt 0.3111 0.7590 0.0000
vt 0.2559 0.7408 0.0000
vt 0.2922 0.7572 0.0000
vt 0.2420 0.7278 0.0000
vt 0.2742 0.7515 0.0000
vt 0.2313 0.7122 0.0000
vt 0.2577 0.7422 0.0000
vt 0.2240 0.6947 0.0000
vt 0.2436 0.7295 0.0000
vt 0.2206 0.6761 0.0000
vt 0.2324 0.7142 0.0000
vt 0.2212 0.6572 0.0000
vt 0.2247 0.6969 0.0000
vt 0.2257 0.6388 0.0000
vt 0.2208 0.6784 0.0000
vt 0.2340 0.6218 0.0000
vt 0.2209 0.6595 0.0000
vt 0.2457 0.6069 0.0000
vt 0.2250 0.6410 0.0000
vt 0.4573 0.0689 0.0000
vt 0.4746 0.1277 0.0000
vt 0.4318 0.1277 0.0000
vt 0.4213 0.0920 0.0000
vt 0.4573 0.1865 0.0000
vt 0.4213 0.1634 0.0000
vt 0.4110 0.2267 0.0000
vt 0.3932 0.1877 0.0000
vt 0.3503 0.2354 0.0000
vt 0.3564 0.1930 0.0000
vt 0.2945 0.2099 0.0000
vt 0.3226 0.1776 0.0000
vt 0.2614 0.1583 0.0000
vt 0.3024 0.1463 0.0000
vt 0.2614 0.0970 0.0000
vt 0.3024 0.1091 0.0000
vt 0.2945 0.0455 0.0000
vt 0.3226 0.0778 0.0000
vt 0.3503 0.0200 0.0000
vt 0.3564 0.0623 0.0000
vt 0.4110 0.0287 0.0000
vt 0.3932 0.0676 0.0000
vt 0.2888 0.5953 0.0000
vt 0.2614 0.5701 0.0000
vt 0.2700 0.5606 0.0000
vt 0.2976 0.5858 0.0000
vt 0.5993 0.8124 0.0000
vt 0.5666 0.7948 0.0000
vt 0.5726 0.7834 0.0000
vt 0.6055 0.8011 0.0000
vt 0.5669 0.7951 0.0000
vt 0.5329 0.7794 0.0000
vt 0.5383 0.7678 0.0000
vt 0.4990 0.7636 0.0000
vt 0.5041 0.7516 0.0000
vt 0.4975 0.7627 0.0000
vt 0.4648 0.7448 0.0000
vt 0.4706 0.7333 0.0000
vt 0.4632 0.7439 0.0000
vt 0.4320 0.7237 0.0000
vt 0.4386 0.7126 0.0000
vt 0.4304 0.7226 0.0000
vt 0.4007 0.7002 0.0000
vt 0.4081 0.6897 0.0000
vt 0.3994 0.6992 0.0000
vt 0.3710 0.6753 0.0000
vt 0.3789 0.6651 0.0000
vt 0.3699 0.6744 0.0000
vt 0.3424 0.6493 0.0000
vt 0.3508 0.6395 0.0000
vt 0.3415 0.6484 0.0000
vt 0.3150 0.6223 0.0000
vt 0.3238 0.6129 0.0000
vt 0.3144 0.6217 0.0000
vt 0.2885 0.5950 0.0000
vt 0.2900 0.7207 0.0000
vt 0.3299 0.7207 0.0000
vt 0.2796 0.7154 0.0000
vt 0.3187 0.7238 0.0000
vt 0.2706 0.7080 0.0000
vt 0.3070 0.7244 0.0000
vt 0.2634 0.6989 0.0000
vt 0.2955 0.7226 0.0000
vt 0.2582 0.6884 0.0000
vt 0.2847 0.7183 0.0000
vt 0.2554 0.6771 0.0000
vt 0.2749 0.7119 0.0000
vt 0.2550 0.6655 0.0000
vt 0.2668 0.7036 0.0000
vt 0.2570 0.6540 0.0000
vt 0.2605 0.6938 0.0000
vt 0.2614 0.6432 0.0000
vt 0.2565 0.6828 0.0000
vt 0.2680 0.6336 0.0000
vt 0.2549 0.6713 0.0000
vt 0.2765 0.6256 0.0000
vt 0.2557 0.6597 0.0000
vt 0.1379 0.4224 0.0000
vt 0.1770 0.4320 0.0000
vt 0.1781 0.4558 0.0000
vt 0.1262 0.4433 0.0000
vt 0.2147 0.4193 0.0000
vt 0.2287 0.4386 0.0000
vt 0.2384 0.3880 0.0000
vt 0.2611 0.3958 0.0000
vt 0.2389 0.3482 0.0000
vt 0.2619 0.3425 0.0000
vt 0.2190 0.3131 0.0000
vt 0.2359 0.2962 0.0000
vt 0.1839 0.2931 0.0000
vt 0.1897 0.2701 0.0000
vt 0.1442 0.2935 0.0000
vt 0.1364 0.2708 0.0000
vt 0.1128 0.3172 0.0000
vt 0.0935 0.3031 0.0000
vt 0.1000 0.3549 0.0000
vt 0.0762 0.3537 0.0000
vt 0.1095 0.3939 0.0000
vt 0.0886 0.4056 0.0000
vt 0.1680 0.4975 0.0000
vt 0.1161 0.4849 0.0000
vt 0.2425 0.4792 0.0000
vt 0.1919 0.4964 0.0000
vt 0.2952 0.4218 0.0000
vt 0.2630 0.4644 0.0000
vt 0.3043 0.3425 0.0000
vt 0.3043 0.3958 0.0000
vt 0.2732 0.2751 0.0000
vt 0.2993 0.3216 0.0000
vt 0.2107 0.2327 0.0000
vt 0.2571 0.2590 0.0000
vt 0.1364 0.2276 0.0000
vt 0.1897 0.2276 0.0000
vt 0.0678 0.2688 0.0000
vt 0.1104 0.2367 0.0000
vt 0.0356 0.3397 0.0000
vt 0.0530 0.2893 0.0000
vt 0.0469 0.4156 0.0000
vt 0.0345 0.3637 0.0000
vt 0.0959 0.4736 0.0000
vt 0.0582 0.4358 0.0000
vt 0.9129 0.6884 0.0000
vt 0.8596 0.6884 0.0000
vt 0.8862 0.5975 0.0000
vt 0.8146 0.6595 0.0000
vt 0.7925 0.6110 0.0000
vt 0.8001 0.5582 0.0000
vt 0.8350 0.5178 0.0000
vt 0.8862 0.5028 0.0000
vt 0.9375 0.5178 0.0000
vt 0.9724 0.5582 0.0000
vt 0.9800 0.6110 0.0000
vt 0.9578 0.6595 0.0000
vt 0.7164 0.0264 0.0000
vt 0.7400 0.0203 0.0000
vt 0.7556 0.0439 0.0000
vt 0.7331 0.0532 0.0000
vt 0.9383 0.2000 0.0000
vt 0.9387 0.1749 0.0000
vt 0.9665 0.1819 0.0000
vt 0.9690 0.2065 0.0000
vt 0.9095 0.1917 0.0000
vt 0.9123 0.1701 0.0000
vt 0.8827 0.1815 0.0000
vt 0.8882 0.1611 0.0000
vt 0.8573 0.1701 0.0000
vt 0.8655 0.1523 0.0000
vt 0.8340 0.1551 0.0000
vt 0.8452 0.1393 0.0000
vt 0.8131 0.1371 0.0000
vt 0.8276 0.1221 0.0000
vt 0.7926 0.1185 0.0000
vt 0.8085 0.1045 0.0000
vt 0.7718 0.0990 0.0000
vt 0.7884 0.0864 0.0000
vt 0.7514 0.0775 0.0000
vt 0.7696 0.0669 0.0000
vt 0.8929 0.1017 0.0000
vt 0.8767 0.1102 0.0000
vt 0.8868 0.0950 0.0000
vt 0.7617 0.0200 0.0000
vt 0.7871 0.0326 0.0000
vt 0.7864 0.0425 0.0000
vt 0.7155 0.0639 0.0000
vt 0.6926 0.0376 0.0000
vt 0.8952 0.1105 0.0000
vt 0.9279 0.1455 0.0000
vt 0.9370 0.1413 0.0000
vt 0.9583 0.1599 0.0000
vt 0.9666 0.2334 0.0000
vt 0.9344 0.2208 0.0000
vt 0.8938 0.1198 0.0000
vt 0.9128 0.1416 0.0000
vt 0.9046 0.2096 0.0000
vt 0.8903 0.1308 0.0000
vt 0.8764 0.1979 0.0000
vt 0.8751 0.1273 0.0000
vt 0.8495 0.1848 0.0000
vt 0.8623 0.1188 0.0000
vt 0.8245 0.1689 0.0000
vt 0.8522 0.1056 0.0000
vt 0.8016 0.1507 0.0000
vt 0.8612 0.0981 0.0000
vt 0.8290 0.0861 0.0000
vt 0.7797 0.1313 0.0000
vt 0.8693 0.0932 0.0000
vt 0.8098 0.0692 0.0000
vt 0.7581 0.1107 0.0000
vt 0.8783 0.0919 0.0000
vt 0.7947 0.0545 0.0000
vt 0.7367 0.0884 0.0000
# 303 texture coords

o Cylinder207
g Cylinder207
s 8
f 1/1/1 2/2/2 3/3/3 4/4/4 
f 2/2/2 5/5/5 6/6/6 3/3/3 
f 5/5/5 7/7/7 8/8/8 6/6/6 
f 7/7/7 9/9/9 10/10/10 8/8/8 
f 9/9/9 11/11/11 12/12/12 10/10/10 
f 11/11/11 13/13/13 14/14/14 12/12/12 
f 13/13/13 15/15/15 16/16/16 14/14/14 
f 15/15/15 17/17/17 18/18/18 16/16/16 
f 17/17/17 19/19/19 20/20/20 18/18/18 
f 19/19/19 21/21/21 22/22/22 20/20/20 
f 21/21/21 1/23/1 4/24/4 22/22/22 
f 23/25/23 24/26/24 25/27/25 26/28/26 
f 24/29/24 27/30/27 28/31/28 25/32/25 
f 27/33/27 29/34/29 30/35/30 28/36/28 
f 29/37/29 31/38/31 32/39/32 30/40/30 
f 31/41/31 33/42/33 34/43/34 32/44/32 
f 33/45/33 35/46/35 36/47/36 34/48/34 
f 35/49/35 37/50/37 38/51/38 36/52/36 
f 37/53/37 39/54/39 40/55/40 38/56/38 
f 39/57/39 41/58/41 42/59/42 40/60/40 
f 41/61/41 43/62/43 44/63/44 42/64/42 
f 43/65/43 23/66/23 26/67/26 44/68/44 
f 26/28/26 25/27/25 45/69/45 46/70/46 
f 25/32/25 28/31/28 47/71/47 45/72/45 
f 28/36/28 30/35/30 48/73/48 47/74/47 
f 30/40/30 32/39/32 49/75/49 48/76/48 
f 32/44/32 34/43/34 50/77/50 49/78/49 
f 34/48/34 36/47/36 51/79/51 50/80/50 
f 36/52/36 38/51/38 52/81/52 51/82/51 
f 38/56/38 40/55/40 53/83/53 52/84/52 
f 40/60/40 42/59/42 54/85/54 53/86/53 
f 42/64/42 44/63/44 55/87/55 54/88/54 
f 44/68/44 26/67/26 46/89/46 55/90/55 
f 46/70/46 45/69/45 56/91/56 57/92/57 
f 45/72/45 47/71/47 58/93/58 56/94/56 
f 47/74/47 48/73/48 59/95/59 58/96/58 
f 48/76/48 49/75/49 60/97/60 59/98/59 
f 49/78/49 50/77/50 61/99/61 60/100/60 
f 50/80/50 51/79/51 62/101/62 61/102/61 
f 51/82/51 52/81/52 63/103/63 62/104/62 
f 52/84/52 53/83/53 64/105/64 63/106/63 
f 53/86/53 54/85/54 65/107/65 64/108/64 
f 54/88/54 55/87/55 66/109/66 65/110/65 
f 55/90/55 46/89/46 57/111/57 66/112/66 
s off
f 2/113/2 1/114/1 67/115/67 68/116/68 
f 1/114/1 21/117/21 69/118/69 67/115/67 
f 21/117/21 19/119/19 70/120/70 69/118/69 
f 19/119/19 17/121/17 71/122/71 70/120/70 
f 17/121/17 15/123/15 72/124/72 71/122/71 
f 15/123/15 13/125/13 73/126/73 72/124/72 
f 13/125/13 11/127/11 74/128/74 73/126/73 
f 11/127/11 9/129/9 75/130/75 74/128/74 
f 9/129/9 7/131/7 76/132/76 75/130/75 
f 7/131/7 5/133/5 77/134/77 76/132/76 
f 5/133/5 2/113/2 68/116/68 77/134/77 
f 68/135/68 67/136/67 78/137/57 79/138/78 
f 67/139/67 69/140/69 80/141/79 78/142/57 
f 69/143/69 70/144/70 81/145/65 80/141/79 
f 70/144/70 71/146/71 82/147/64 81/145/65 
f 71/148/71 72/149/72 83/150/80 82/147/64 
f 72/151/72 73/152/73 84/153/62 83/150/80 
f 73/154/73 74/155/74 85/156/81 84/153/62 
f 74/157/74 75/158/75 86/159/82 85/156/81 
f 75/160/75 76/161/76 87/162/59 86/159/82 
f 76/163/76 77/164/77 88/165/58 87/162/59 
f 77/166/77 68/167/68 79/138/78 88/165/58 
f 57/92/57 56/91/56 89/168/83 90/169/84 
f 56/94/56 58/93/58 91/170/85 89/171/83 
f 58/96/58 59/95/59 92/172/86 91/173/85 
f 59/98/59 60/97/60 93/174/87 92/175/86 
f 60/100/60 61/99/61 94/176/88 93/177/87 
f 61/102/61 62/101/62 95/178/73 94/179/88 
f 62/104/62 63/103/63 96/180/89 95/181/73 
f 63/106/63 64/105/64 97/182/90 96/183/89 
f 64/108/64 65/107/65 98/184/70 97/185/90 
f 65/110/65 66/109/66 99/186/69 98/187/70 
f 66/112/66 57/111/57 90/188/84 99/189/69 
f 90/190/84 89/191/83 100/192/91 101/193/92 
f 89/191/83 91/194/85 102/195/93 100/192/91 
f 91/194/85 92/196/86 103/197/94 102/195/93 
f 92/196/86 93/198/87 104/199/95 103/197/94 
f 93/198/87 94/200/88 105/201/96 104/199/95 
f 94/200/88 95/202/73 106/203/97 105/201/96 
f 95/202/73 96/204/89 107/205/98 106/203/97 
f 96/204/89 97/206/90 108/207/99 107/205/98 
f 97/206/90 98/208/70 109/209/100 108/207/99 
f 98/208/70 99/210/69 110/211/101 109/209/100 
f 99/210/69 90/190/84 101/193/92 110/211/101 
f 101/193/92 100/192/91 111/212/102 112/213/103 
f 100/192/91 102/195/93 113/214/104 111/215/102 
f 102/195/93 103/197/94 114/216/105 113/217/104 
f 103/197/94 104/199/95 115/218/106 114/219/105 
f 104/199/95 105/201/96 116/220/107 115/221/106 
f 105/201/96 106/203/97 117/222/108 116/223/107 
f 106/203/97 107/205/98 118/224/109 117/225/108 
f 107/205/98 108/207/99 119/226/110 118/227/109 
f 108/207/99 109/209/100 120/228/111 119/229/110 
f 109/209/100 110/211/101 121/230/112 120/231/111 
f 110/211/101 101/193/92 112/232/103 121/233/112 
f 112/234/103 111/235/102 122/236/113 
f 111/235/102 113/237/104 122/236/113 
f 113/237/104 114/238/105 122/236/113 
f 114/238/105 115/239/106 122/236/113 
f 115/239/106 116/240/107 122/236/113 
f 116/240/107 117/241/108 122/236/113 
f 117/241/108 118/242/109 122/236/113 
f 118/242/109 119/243/110 122/236/113 
f 119/243/110 120/244/111 122/236/113 
f 120/244/111 121/245/112 122/236/113 
f 121/245/112 112/234/103 122/236/113 
f 123/246/114 124/247/115 125/248/116 126/249/117 
f 127/250/118 128/251/119 124/252/115 123/253/114 
f 129/254/120 130/255/121 128/251/119 127/250/118 
f 131/256/122 132/257/123 130/255/121 129/254/120 
f 133/258/124 134/259/125 132/257/123 131/256/122 
f 135/260/126 136/261/127 134/259/125 133/258/124 
f 137/262/128 138/263/129 136/261/127 135/260/126 
f 139/264/130 140/265/131 138/263/129 137/262/128 
f 141/266/132 142/267/133 140/265/131 139/264/130 
f 143/268/134 144/269/135 142/267/133 141/266/132 
f 126/249/117 125/248/116 144/269/135 143/268/134 
f 145/270/136 146/271/137 147/272/138 
f 124/273/115 145/274/136 147/275/138 125/248/116 
f 126/249/117 148/276/139 149/277/140 123/246/114 
f 150/278/141 146/271/137 145/270/136 
f 128/251/119 150/279/141 145/280/136 124/281/115 
f 123/253/114 149/282/140 151/283/142 127/250/118 
f 152/284/143 146/271/137 150/278/141 
f 130/255/121 152/285/143 150/279/141 128/251/119 
f 127/250/118 151/283/142 153/286/144 129/254/120 
f 154/287/145 146/271/137 152/284/143 
f 132/257/123 154/287/145 152/285/143 130/255/121 
f 129/254/120 153/286/144 155/288/146 131/256/122 
f 156/289/147 146/271/137 154/287/145 
f 134/259/125 156/289/147 154/287/145 132/257/123 
f 131/256/122 155/288/146 157/290/148 133/258/124 
f 158/291/149 146/271/137 156/289/147 
f 136/261/127 158/291/149 156/289/147 134/259/125 
f 133/258/124 157/290/148 159/292/150 135/260/126 
f 160/293/151 146/271/137 158/291/149 
f 138/263/129 160/293/151 158/291/149 136/261/127 
f 135/260/126 159/292/150 161/294/152 137/262/128 
f 162/295/153 146/271/137 160/293/151 
f 140/265/131 162/296/153 160/293/151 138/263/129 
f 137/262/128 161/294/152 163/297/154 139/264/130 
f 164/298/155 146/271/137 162/295/153 
f 142/267/133 164/299/155 162/296/153 140/265/131 
f 139/264/130 163/297/154 165/300/156 141/266/132 
f 166/301/157 146/271/137 164/298/155 
f 144/269/135 166/302/157 164/299/155 142/267/133 
f 141/266/132 165/300/156 167/303/158 143/268/134 
f 147/272/138 146/271/137 166/301/157 
f 125/248/116 147/275/138 166/302/157 144/269/135 
f 143/268/134 167/303/158 148/276/139 126/249/117 
s 8
f 3/3/3 24/26/24 23/25/23 4/4/4 
f 6/6/6 27/30/27 24/29/24 3/3/3 
f 8/8/8 29/34/29 27/33/27 6/6/6 
f 10/10/10 31/38/31 29/37/29 8/8/8 
f 12/12/12 33/42/33 31/41/31 10/10/10 
f 14/14/14 35/46/35 33/45/33 12/12/12 
f 16/16/16 37/50/37 35/49/35 14/14/14 
f 18/18/18 39/54/39 37/53/37 16/16/16 
f 20/20/20 41/58/41 39/57/39 18/18/18 
f 22/22/22 43/62/43 41/61/41 20/20/20 
f 4/24/4 23/66/23 43/65/43 22/22/22 
s off
f 78/137/57 149/277/140 148/276/139 79/138/78 
f 80/141/79 151/283/142 149/282/140 78/142/57 
f 81/145/65 153/286/144 151/283/142 80/141/79 
f 82/147/64 155/288/146 153/286/144 81/145/65 
f 83/150/80 157/290/148 155/288/146 82/147/64 
f 84/153/62 159/292/150 157/290/148 83/150/80 
f 85/156/81 161/294/152 159/292/150 84/153/62 
f 86/159/82 163/297/154 161/294/152 85/156/81 
f 87/162/59 165/300/156 163/297/154 86/159/82 
f 88/165/58 167/303/158 165/300/156 87/162/59 
f 79/138/78 148/276/139 167/303/158 88/165/58 
# 154 polygons - 22 triangles

